<?xml version="1.0" encoding="utf-8" standalone="no"?>
<!DOCTYPE svg PUBLIC "-//W3C//DTD SVG 1.1//EN"
  "http://www.w3.org/Graphics/SVG/1.1/DTD/svg11.dtd">
<svg xmlns:xlink="http://www.w3.org/1999/xlink" width="460.8pt" height="345.6pt" viewBox="0 0 460.8 345.6" xmlns="http://www.w3.org/2000/svg" version="1.1">
 <metadata>
  <rdf:RDF xmlns:dc="http://purl.org/dc/elements/1.1/" xmlns:cc="http://creativecommons.org/ns#" xmlns:rdf="http://www.w3.org/1999/02/22-rdf-syntax-ns#">
   <cc:Work>
    <dc:type rdf:resource="http://purl.org/dc/dcmitype/StillImage"/>
    <dc:date>2024-10-08T13:02:55.750788</dc:date>
    <dc:format>image/svg+xml</dc:format>
    <dc:creator>
     <cc:Agent>
      <dc:title>Matplotlib v3.9.1, https://matplotlib.org/</dc:title>
     </cc:Agent>
    </dc:creator>
   </cc:Work>
  </rdf:RDF>
 </metadata>
 <defs>
  <style type="text/css">*{stroke-linejoin: round; stroke-linecap: butt}</style>
 </defs>
 <g id="figure_1">
  <g id="patch_1">
   <path d="M 0 345.6 
L 460.8 345.6 
L 460.8 0 
L 0 0 
z
" style="fill: #ffffff"/>
  </g>
  <g id="axes_1">
   <g id="patch_2">
    <path d="M 57.6 307.584 
L 414.72 307.584 
L 414.72 41.472 
L 57.6 41.472 
z
" style="fill: #ffffff"/>
   </g>
   <g id="PathCollection_1">
    <path d="M 73.865193 255.544146 
C 74.074854 255.544146 74.275957 255.460846 74.42421 255.312593 
C 74.572463 255.16434 74.655762 254.963238 74.655762 254.753576 
C 74.655762 254.543915 74.572463 254.342812 74.42421 254.194559 
C 74.275957 254.046306 74.074854 253.963007 73.865193 253.963007 
C 73.655531 253.963007 73.454429 254.046306 73.306176 254.194559 
C 73.157923 254.342812 73.074623 254.543915 73.074623 254.753576 
C 73.074623 254.963238 73.157923 255.16434 73.306176 255.312593 
C 73.454429 255.460846 73.655531 255.544146 73.865193 255.544146 
z
" clip-path="url(#pe614479bc8)" style="fill: #0000ff; stroke: #0000ff"/>
    <path d="M 73.897658 281.864636 
C 74.10732 281.864636 74.308422 281.781337 74.456675 281.633084 
C 74.604928 281.484831 74.688228 281.283728 74.688228 281.074067 
C 74.688228 280.864405 74.604928 280.663303 74.456675 280.51505 
C 74.308422 280.366797 74.10732 280.283497 73.897658 280.283497 
C 73.687997 280.283497 73.486894 280.366797 73.338641 280.51505 
C 73.190388 280.663303 73.107089 280.864405 73.107089 281.074067 
C 73.107089 281.283728 73.190388 281.484831 73.338641 281.633084 
C 73.486894 281.781337 73.687997 281.864636 73.897658 281.864636 
z
" clip-path="url(#pe614479bc8)" style="fill: #0000ff; stroke: #0000ff"/>
    <path d="M 73.930124 282.122077 
C 74.139785 282.122077 74.340888 282.038778 74.489141 281.890525 
C 74.637394 281.742272 74.720693 281.541169 74.720693 281.331508 
C 74.720693 281.121846 74.637394 280.920744 74.489141 280.772491 
C 74.340888 280.624238 74.139785 280.540939 73.930124 280.540939 
C 73.720462 280.540939 73.51936 280.624238 73.371107 280.772491 
C 73.222854 280.920744 73.139554 281.121846 73.139554 281.331508 
C 73.139554 281.541169 73.222854 281.742272 73.371107 281.890525 
C 73.51936 282.038778 73.720462 282.122077 73.930124 282.122077 
z
" clip-path="url(#pe614479bc8)" style="fill: #0000ff; stroke: #0000ff"/>
    <path d="M 73.962589 277.5179 
C 74.172251 277.5179 74.373353 277.4346 74.521606 277.286347 
C 74.669859 277.138094 74.753159 276.936992 74.753159 276.72733 
C 74.753159 276.517669 74.669859 276.316566 74.521606 276.168313 
C 74.373353 276.02006 74.172251 275.936761 73.962589 275.936761 
C 73.752928 275.936761 73.551825 276.02006 73.403572 276.168313 
C 73.255319 276.316566 73.17202 276.517669 73.17202 276.72733 
C 73.17202 276.936992 73.255319 277.138094 73.403572 277.286347 
C 73.551825 277.4346 73.752928 277.5179 73.962589 277.5179 
z
" clip-path="url(#pe614479bc8)" style="fill: #0000ff; stroke: #0000ff"/>
    <path d="M 74.02752 292.741989 
C 74.237181 292.741989 74.438284 292.658689 74.586537 292.510436 
C 74.73479 292.362183 74.818089 292.161081 74.818089 291.951419 
C 74.818089 291.741758 74.73479 291.540655 74.586537 291.392402 
C 74.438284 291.244149 74.237181 291.16085 74.02752 291.16085 
C 73.817859 291.16085 73.616756 291.244149 73.468503 291.392402 
C 73.32025 291.540655 73.236951 291.741758 73.236951 291.951419 
C 73.236951 292.161081 73.32025 292.362183 73.468503 292.510436 
C 73.616756 292.658689 73.817859 292.741989 74.02752 292.741989 
z
" clip-path="url(#pe614479bc8)" style="fill: #0000ff; stroke: #0000ff"/>
    <path d="M 74.157382 282.684768 
C 74.367043 282.684768 74.568146 282.601469 74.716399 282.453215 
C 74.864652 282.304962 74.947951 282.10386 74.947951 281.894198 
C 74.947951 281.684537 74.864652 281.483435 74.716399 281.335181 
C 74.568146 281.186928 74.367043 281.103629 74.157382 281.103629 
C 73.94772 281.103629 73.746618 281.186928 73.598365 281.335181 
C 73.450112 281.483435 73.366812 281.684537 73.366812 281.894198 
C 73.366812 282.10386 73.450112 282.304962 73.598365 282.453215 
C 73.746618 282.601469 73.94772 282.684768 74.157382 282.684768 
z
" clip-path="url(#pe614479bc8)" style="fill: #0000ff; stroke: #0000ff"/>
    <path d="M 74.319709 288.370726 
C 74.529371 288.370726 74.730473 288.287427 74.878726 288.139174 
C 75.026979 287.990921 75.110279 287.789818 75.110279 287.580157 
C 75.110279 287.370495 75.026979 287.169393 74.878726 287.02114 
C 74.730473 286.872887 74.529371 286.789588 74.319709 286.789588 
C 74.110048 286.789588 73.908945 286.872887 73.760692 287.02114 
C 73.612439 287.169393 73.52914 287.370495 73.52914 287.580157 
C 73.52914 287.789818 73.612439 287.990921 73.760692 288.139174 
C 73.908945 288.287427 74.110048 288.370726 74.319709 288.370726 
z
" clip-path="url(#pe614479bc8)" style="fill: #0000ff; stroke: #0000ff"/>
    <path d="M 74.644364 292.268755 
C 74.854025 292.268755 75.055128 292.185456 75.203381 292.037203 
C 75.351634 291.88895 75.434933 291.687847 75.434933 291.478186 
C 75.434933 291.268524 75.351634 291.067422 75.203381 290.919169 
C 75.055128 290.770916 74.854025 290.687616 74.644364 290.687616 
C 74.434702 290.687616 74.2336 290.770916 74.085347 290.919169 
C 73.937094 291.067422 73.853794 291.268524 73.853794 291.478186 
C 73.853794 291.687847 73.937094 291.88895 74.085347 292.037203 
C 74.2336 292.185456 74.434702 292.268755 74.644364 292.268755 
z
" clip-path="url(#pe614479bc8)" style="fill: #0000ff; stroke: #0000ff"/>
    <path d="M 75.09888 289.953811 
C 75.308541 289.953811 75.509644 289.870511 75.657897 289.722258 
C 75.80615 289.574005 75.889449 289.372903 75.889449 289.163241 
C 75.889449 288.95358 75.80615 288.752477 75.657897 288.604224 
C 75.509644 288.455971 75.308541 288.372672 75.09888 288.372672 
C 74.889219 288.372672 74.688116 288.455971 74.539863 288.604224 
C 74.39161 288.752477 74.308311 288.95358 74.308311 289.163241 
C 74.308311 289.372903 74.39161 289.574005 74.539863 289.722258 
C 74.688116 289.870511 74.889219 289.953811 75.09888 289.953811 
z
" clip-path="url(#pe614479bc8)" style="fill: #0000ff; stroke: #0000ff"/>
    <path d="M 75.878051 283.271223 
C 76.087712 283.271223 76.288815 283.187924 76.437068 283.039671 
C 76.585321 282.891418 76.66862 282.690315 76.66862 282.480654 
C 76.66862 282.270992 76.585321 282.06989 76.437068 281.921637 
C 76.288815 281.773384 76.087712 281.690084 75.878051 281.690084 
C 75.668389 281.690084 75.467287 281.773384 75.319034 281.921637 
C 75.170781 282.06989 75.087481 282.270992 75.087481 282.480654 
C 75.087481 282.690315 75.170781 282.891418 75.319034 283.039671 
C 75.467287 283.187924 75.668389 283.271223 75.878051 283.271223 
z
" clip-path="url(#pe614479bc8)" style="fill: #0000ff; stroke: #0000ff"/>
    <path d="M 77.079273 287.234465 
C 77.288934 287.234465 77.490037 287.151165 77.63829 287.002912 
C 77.786543 286.854659 77.869842 286.653557 77.869842 286.443895 
C 77.869842 286.234234 77.786543 286.033131 77.63829 285.884878 
C 77.490037 285.736625 77.288934 285.653326 77.079273 285.653326 
C 76.869611 285.653326 76.668509 285.736625 76.520256 285.884878 
C 76.372003 286.033131 76.288703 286.234234 76.288703 286.443895 
C 76.288703 286.653557 76.372003 286.854659 76.520256 287.002912 
C 76.668509 287.151165 76.869611 287.234465 77.079273 287.234465 
z
" clip-path="url(#pe614479bc8)" style="fill: #0000ff; stroke: #0000ff"/>
    <path d="M 78.962269 267.670878 
C 79.171931 267.670878 79.373033 267.587579 79.521286 267.439326 
C 79.669539 267.291073 79.752839 267.08997 79.752839 266.880309 
C 79.752839 266.670648 79.669539 266.469545 79.521286 266.321292 
C 79.373033 266.173039 79.171931 266.08974 78.962269 266.08974 
C 78.752608 266.08974 78.551505 266.173039 78.403252 266.321292 
C 78.254999 266.469545 78.1717 266.670648 78.1717 266.880309 
C 78.1717 267.08997 78.254999 267.291073 78.403252 267.439326 
C 78.551505 267.587579 78.752608 267.670878 78.962269 267.670878 
z
" clip-path="url(#pe614479bc8)" style="fill: #0000ff; stroke: #0000ff"/>
    <path d="M 81.981556 258.260399 
C 82.191218 258.260399 82.39232 258.1771 82.540573 258.028847 
C 82.688826 257.880594 82.772126 257.679491 82.772126 257.46983 
C 82.772126 257.260168 82.688826 257.059066 82.540573 256.910813 
C 82.39232 256.76256 82.191218 256.679261 81.981556 256.679261 
C 81.771895 256.679261 81.570792 256.76256 81.422539 256.910813 
C 81.274286 257.059066 81.190987 257.260168 81.190987 257.46983 
C 81.190987 257.679491 81.274286 257.880594 81.422539 258.028847 
C 81.570792 258.1771 81.771895 258.260399 81.981556 258.260399 
z
" clip-path="url(#pe614479bc8)" style="fill: #0000ff; stroke: #0000ff"/>
    <path d="M 86.753978 273.668534 
C 86.96364 273.668534 87.164742 273.585235 87.312995 273.436982 
C 87.461248 273.288729 87.544548 273.087627 87.544548 272.877965 
C 87.544548 272.668304 87.461248 272.467201 87.312995 272.318948 
C 87.164742 272.170695 86.96364 272.087396 86.753978 272.087396 
C 86.544317 272.087396 86.343214 272.170695 86.194961 272.318948 
C 86.046708 272.467201 85.963409 272.668304 85.963409 272.877965 
C 85.963409 273.087627 86.046708 273.288729 86.194961 273.436982 
C 86.343214 273.585235 86.544317 273.668534 86.753978 273.668534 
z
" clip-path="url(#pe614479bc8)" style="fill: #0000ff; stroke: #0000ff"/>
    <path d="M 94.285964 255.074897 
C 94.495625 255.074897 94.696728 254.991598 94.844981 254.843345 
C 94.993234 254.695092 95.076533 254.493989 95.076533 254.284328 
C 95.076533 254.074666 94.993234 253.873564 94.844981 253.725311 
C 94.696728 253.577058 94.495625 253.493758 94.285964 253.493758 
C 94.076302 253.493758 93.8752 253.577058 93.726947 253.725311 
C 93.578694 253.873564 93.495394 254.074666 93.495394 254.284328 
C 93.495394 254.493989 93.578694 254.695092 93.726947 254.843345 
C 93.8752 254.991598 94.076302 255.074897 94.285964 255.074897 
z
" clip-path="url(#pe614479bc8)" style="fill: #0000ff; stroke: #0000ff"/>
    <path d="M 106.298182 244.046719 
C 106.507843 244.046719 106.708946 243.96342 106.857199 243.815167 
C 107.005452 243.666914 107.088751 243.465811 107.088751 243.25615 
C 107.088751 243.046488 107.005452 242.845386 106.857199 242.697133 
C 106.708946 242.54888 106.507843 242.46558 106.298182 242.46558 
C 106.08852 242.46558 105.887418 242.54888 105.739165 242.697133 
C 105.590912 242.845386 105.507612 243.046488 105.507612 243.25615 
C 105.507612 243.465811 105.590912 243.666914 105.739165 243.815167 
C 105.887418 243.96342 106.08852 244.046719 106.298182 244.046719 
z
" clip-path="url(#pe614479bc8)" style="fill: #0000ff; stroke: #0000ff"/>
    <path d="M 125.258007 238.124083 
C 125.467669 238.124083 125.668771 238.040784 125.817024 237.892531 
C 125.965277 237.744278 126.048577 237.543175 126.048577 237.333514 
C 126.048577 237.123853 125.965277 236.92275 125.817024 236.774497 
C 125.668771 236.626244 125.467669 236.542945 125.258007 236.542945 
C 125.048346 236.542945 124.847243 236.626244 124.69899 236.774497 
C 124.550737 236.92275 124.467438 237.123853 124.467438 237.333514 
C 124.467438 237.543175 124.550737 237.744278 124.69899 237.892531 
C 124.847243 238.040784 125.048346 238.124083 125.258007 238.124083 
z
" clip-path="url(#pe614479bc8)" style="fill: #0000ff; stroke: #0000ff"/>
    <path d="M 155.353484 199.085266 
C 155.563145 199.085266 155.764248 199.001967 155.912501 198.853714 
C 156.060754 198.705461 156.144053 198.504358 156.144053 198.294697 
C 156.144053 198.085035 156.060754 197.883933 155.912501 197.73568 
C 155.764248 197.587427 155.563145 197.504127 155.353484 197.504127 
C 155.143822 197.504127 154.94272 197.587427 154.794467 197.73568 
C 154.646214 197.883933 154.562914 198.085035 154.562914 198.294697 
C 154.562914 198.504358 154.646214 198.705461 154.794467 198.853714 
C 154.94272 199.001967 155.143822 199.085266 155.353484 199.085266 
z
" clip-path="url(#pe614479bc8)" style="fill: #0000ff; stroke: #0000ff"/>
    <path d="M 203.077702 164.058721 
C 203.287363 164.058721 203.488466 163.975422 203.636719 163.827169 
C 203.784972 163.678916 203.868271 163.477813 203.868271 163.268152 
C 203.868271 163.05849 203.784972 162.857388 203.636719 162.709135 
C 203.488466 162.560882 203.287363 162.477582 203.077702 162.477582 
C 202.86804 162.477582 202.666938 162.560882 202.518685 162.709135 
C 202.370432 162.857388 202.287132 163.05849 202.287132 163.268152 
C 202.287132 163.477813 202.370432 163.678916 202.518685 163.827169 
C 202.666938 163.975422 202.86804 164.058721 203.077702 164.058721 
z
" clip-path="url(#pe614479bc8)" style="fill: #0000ff; stroke: #0000ff"/>
    <path d="M 278.65728 127.695192 
C 278.866941 127.695192 279.068044 127.611893 279.216297 127.46364 
C 279.36455 127.315387 279.447849 127.114284 279.447849 126.904623 
C 279.447849 126.694961 279.36455 126.493859 279.216297 126.345606 
C 279.068044 126.197353 278.866941 126.114053 278.65728 126.114053 
C 278.447619 126.114053 278.246516 126.197353 278.098263 126.345606 
C 277.95001 126.493859 277.866711 126.694961 277.866711 126.904623 
C 277.866711 127.114284 277.95001 127.315387 278.098263 127.46364 
C 278.246516 127.611893 278.447619 127.695192 278.65728 127.695192 
z
" clip-path="url(#pe614479bc8)" style="fill: #0000ff; stroke: #0000ff"/>
    <path d="M 398.487273 54.358569 
C 398.696934 54.358569 398.898037 54.27527 399.04629 54.127017 
C 399.194543 53.978764 399.277842 53.777661 399.277842 53.568 
C 399.277842 53.358339 399.194543 53.157236 399.04629 53.008983 
C 398.898037 52.86073 398.696934 52.777431 398.487273 52.777431 
C 398.277611 52.777431 398.076509 52.86073 397.928256 53.008983 
C 397.780003 53.157236 397.696703 53.358339 397.696703 53.568 
C 397.696703 53.777661 397.780003 53.978764 397.928256 54.127017 
C 398.076509 54.27527 398.277611 54.358569 398.487273 54.358569 
z
" clip-path="url(#pe614479bc8)" style="fill: #0000ff; stroke: #0000ff"/>
    <path d="M 73.865193 231.446742 
C 74.074854 231.446742 74.275957 231.363442 74.42421 231.215189 
C 74.572463 231.066936 74.655762 230.865834 74.655762 230.656172 
C 74.655762 230.446511 74.572463 230.245408 74.42421 230.097155 
C 74.275957 229.948902 74.074854 229.865603 73.865193 229.865603 
C 73.655531 229.865603 73.454429 229.948902 73.306176 230.097155 
C 73.157923 230.245408 73.074623 230.446511 73.074623 230.656172 
C 73.074623 230.865834 73.157923 231.066936 73.306176 231.215189 
C 73.454429 231.363442 73.655531 231.446742 73.865193 231.446742 
z
" clip-path="url(#pe614479bc8)" style="fill: #0000ff; stroke: #0000ff"/>
    <path d="M 73.897658 280.749674 
C 74.10732 280.749674 74.308422 280.666374 74.456675 280.518121 
C 74.604928 280.369868 74.688228 280.168766 74.688228 279.959104 
C 74.688228 279.749443 74.604928 279.54834 74.456675 279.400087 
C 74.308422 279.251834 74.10732 279.168535 73.897658 279.168535 
C 73.687997 279.168535 73.486894 279.251834 73.338641 279.400087 
C 73.190388 279.54834 73.107089 279.749443 73.107089 279.959104 
C 73.107089 280.168766 73.190388 280.369868 73.338641 280.518121 
C 73.486894 280.666374 73.687997 280.749674 73.897658 280.749674 
z
" clip-path="url(#pe614479bc8)" style="fill: #0000ff; stroke: #0000ff"/>
    <path d="M 73.930124 296.278569 
C 74.139785 296.278569 74.340888 296.19527 74.489141 296.047017 
C 74.637394 295.898764 74.720693 295.697661 74.720693 295.488 
C 74.720693 295.278339 74.637394 295.077236 74.489141 294.928983 
C 74.340888 294.78073 74.139785 294.697431 73.930124 294.697431 
C 73.720462 294.697431 73.51936 294.78073 73.371107 294.928983 
C 73.222854 295.077236 73.139554 295.278339 73.139554 295.488 
C 73.139554 295.697661 73.222854 295.898764 73.371107 296.047017 
C 73.51936 296.19527 73.720462 296.278569 73.930124 296.278569 
z
" clip-path="url(#pe614479bc8)" style="fill: #0000ff; stroke: #0000ff"/>
    <path d="M 73.962589 279.992242 
C 74.172251 279.992242 74.373353 279.908943 74.521606 279.76069 
C 74.669859 279.612437 74.753159 279.411334 74.753159 279.201673 
C 74.753159 278.992012 74.669859 278.790909 74.521606 278.642656 
C 74.373353 278.494403 74.172251 278.411104 73.962589 278.411104 
C 73.752928 278.411104 73.551825 278.494403 73.403572 278.642656 
C 73.255319 278.790909 73.17202 278.992012 73.17202 279.201673 
C 73.17202 279.411334 73.255319 279.612437 73.403572 279.76069 
C 73.551825 279.908943 73.752928 279.992242 73.962589 279.992242 
z
" clip-path="url(#pe614479bc8)" style="fill: #0000ff; stroke: #0000ff"/>
    <path d="M 74.02752 286.418366 
C 74.237181 286.418366 74.438284 286.335066 74.586537 286.186813 
C 74.73479 286.03856 74.818089 285.837458 74.818089 285.627796 
C 74.818089 285.418135 74.73479 285.217032 74.586537 285.068779 
C 74.438284 284.920526 74.237181 284.837227 74.02752 284.837227 
C 73.817859 284.837227 73.616756 284.920526 73.468503 285.068779 
C 73.32025 285.217032 73.236951 285.418135 73.236951 285.627796 
C 73.236951 285.837458 73.32025 286.03856 73.468503 286.186813 
C 73.616756 286.335066 73.817859 286.418366 74.02752 286.418366 
z
" clip-path="url(#pe614479bc8)" style="fill: #0000ff; stroke: #0000ff"/>
    <path d="M 74.157382 279.869024 
C 74.367043 279.869024 74.568146 279.785725 74.716399 279.637472 
C 74.864652 279.489219 74.947951 279.288116 74.947951 279.078455 
C 74.947951 278.868793 74.864652 278.667691 74.716399 278.519438 
C 74.568146 278.371185 74.367043 278.287885 74.157382 278.287885 
C 73.94772 278.287885 73.746618 278.371185 73.598365 278.519438 
C 73.450112 278.667691 73.366812 278.868793 73.366812 279.078455 
C 73.366812 279.288116 73.450112 279.489219 73.598365 279.637472 
C 73.746618 279.785725 73.94772 279.869024 74.157382 279.869024 
z
" clip-path="url(#pe614479bc8)" style="fill: #0000ff; stroke: #0000ff"/>
    <path d="M 74.319709 285.953802 
C 74.529371 285.953802 74.730473 285.870502 74.878726 285.722249 
C 75.026979 285.573996 75.110279 285.372894 75.110279 285.163232 
C 75.110279 284.953571 75.026979 284.752468 74.878726 284.604215 
C 74.730473 284.455962 74.529371 284.372663 74.319709 284.372663 
C 74.110048 284.372663 73.908945 284.455962 73.760692 284.604215 
C 73.612439 284.752468 73.52914 284.953571 73.52914 285.163232 
C 73.52914 285.372894 73.612439 285.573996 73.760692 285.722249 
C 73.908945 285.870502 74.110048 285.953802 74.319709 285.953802 
z
" clip-path="url(#pe614479bc8)" style="fill: #0000ff; stroke: #0000ff"/>
    <path d="M 74.644364 282.551615 
C 74.854025 282.551615 75.055128 282.468316 75.203381 282.320063 
C 75.351634 282.17181 75.434933 281.970707 75.434933 281.761046 
C 75.434933 281.551384 75.351634 281.350282 75.203381 281.202029 
C 75.055128 281.053776 74.854025 280.970476 74.644364 280.970476 
C 74.434702 280.970476 74.2336 281.053776 74.085347 281.202029 
C 73.937094 281.350282 73.853794 281.551384 73.853794 281.761046 
C 73.853794 281.970707 73.937094 282.17181 74.085347 282.320063 
C 74.2336 282.468316 74.434702 282.551615 74.644364 282.551615 
z
" clip-path="url(#pe614479bc8)" style="fill: #0000ff; stroke: #0000ff"/>
    <path d="M 75.09888 286.966686 
C 75.308541 286.966686 75.509644 286.883387 75.657897 286.735134 
C 75.80615 286.586881 75.889449 286.385778 75.889449 286.176117 
C 75.889449 285.966456 75.80615 285.765353 75.657897 285.6171 
C 75.509644 285.468847 75.308541 285.385548 75.09888 285.385548 
C 74.889219 285.385548 74.688116 285.468847 74.539863 285.6171 
C 74.39161 285.765353 74.308311 285.966456 74.308311 286.176117 
C 74.308311 286.385778 74.39161 286.586881 74.539863 286.735134 
C 74.688116 286.883387 74.889219 286.966686 75.09888 286.966686 
z
" clip-path="url(#pe614479bc8)" style="fill: #0000ff; stroke: #0000ff"/>
    <path d="M 75.878051 289.163726 
C 76.087712 289.163726 76.288815 289.080427 76.437068 288.932174 
C 76.585321 288.783921 76.66862 288.582818 76.66862 288.373157 
C 76.66862 288.163495 76.585321 287.962393 76.437068 287.81414 
C 76.288815 287.665887 76.087712 287.582587 75.878051 287.582587 
C 75.668389 287.582587 75.467287 287.665887 75.319034 287.81414 
C 75.170781 287.962393 75.087481 288.163495 75.087481 288.373157 
C 75.087481 288.582818 75.170781 288.783921 75.319034 288.932174 
C 75.467287 289.080427 75.668389 289.163726 75.878051 289.163726 
z
" clip-path="url(#pe614479bc8)" style="fill: #0000ff; stroke: #0000ff"/>
    <path d="M 77.079273 290.709476 
C 77.288934 290.709476 77.490037 290.626176 77.63829 290.477923 
C 77.786543 290.32967 77.869842 290.128568 77.869842 289.918906 
C 77.869842 289.709245 77.786543 289.508142 77.63829 289.359889 
C 77.490037 289.211636 77.288934 289.128337 77.079273 289.128337 
C 76.869611 289.128337 76.668509 289.211636 76.520256 289.359889 
C 76.372003 289.508142 76.288703 289.709245 76.288703 289.918906 
C 76.288703 290.128568 76.372003 290.32967 76.520256 290.477923 
C 76.668509 290.626176 76.869611 290.709476 77.079273 290.709476 
z
" clip-path="url(#pe614479bc8)" style="fill: #0000ff; stroke: #0000ff"/>
    <path d="M 78.962269 281.504252 
C 79.171931 281.504252 79.373033 281.420953 79.521286 281.2727 
C 79.669539 281.124447 79.752839 280.923344 79.752839 280.713683 
C 79.752839 280.504021 79.669539 280.302919 79.521286 280.154666 
C 79.373033 280.006413 79.171931 279.923113 78.962269 279.923113 
C 78.752608 279.923113 78.551505 280.006413 78.403252 280.154666 
C 78.254999 280.302919 78.1717 280.504021 78.1717 280.713683 
C 78.1717 280.923344 78.254999 281.124447 78.403252 281.2727 
C 78.551505 281.420953 78.752608 281.504252 78.962269 281.504252 
z
" clip-path="url(#pe614479bc8)" style="fill: #0000ff; stroke: #0000ff"/>
    <path d="M 81.981556 276.355922 
C 82.191218 276.355922 82.39232 276.272623 82.540573 276.12437 
C 82.688826 275.976116 82.772126 275.775014 82.772126 275.565353 
C 82.772126 275.355691 82.688826 275.154589 82.540573 275.006336 
C 82.39232 274.858082 82.191218 274.774783 81.981556 274.774783 
C 81.771895 274.774783 81.570792 274.858082 81.422539 275.006336 
C 81.274286 275.154589 81.190987 275.355691 81.190987 275.565353 
C 81.190987 275.775014 81.274286 275.976116 81.422539 276.12437 
C 81.570792 276.272623 81.771895 276.355922 81.981556 276.355922 
z
" clip-path="url(#pe614479bc8)" style="fill: #0000ff; stroke: #0000ff"/>
    <path d="M 86.753978 263.813292 
C 86.96364 263.813292 87.164742 263.729993 87.312995 263.58174 
C 87.461248 263.433487 87.544548 263.232384 87.544548 263.022723 
C 87.544548 262.813061 87.461248 262.611959 87.312995 262.463706 
C 87.164742 262.315453 86.96364 262.232153 86.753978 262.232153 
C 86.544317 262.232153 86.343214 262.315453 86.194961 262.463706 
C 86.046708 262.611959 85.963409 262.813061 85.963409 263.022723 
C 85.963409 263.232384 86.046708 263.433487 86.194961 263.58174 
C 86.343214 263.729993 86.544317 263.813292 86.753978 263.813292 
z
" clip-path="url(#pe614479bc8)" style="fill: #0000ff; stroke: #0000ff"/>
    <path d="M 94.285964 257.468201 
C 94.495625 257.468201 94.696728 257.384902 94.844981 257.236649 
C 94.993234 257.088396 95.076533 256.887293 95.076533 256.677632 
C 95.076533 256.46797 94.993234 256.266868 94.844981 256.118615 
C 94.696728 255.970362 94.495625 255.887063 94.285964 255.887063 
C 94.076302 255.887063 93.8752 255.970362 93.726947 256.118615 
C 93.578694 256.266868 93.495394 256.46797 93.495394 256.677632 
C 93.495394 256.887293 93.578694 257.088396 93.726947 257.236649 
C 93.8752 257.384902 94.076302 257.468201 94.285964 257.468201 
z
" clip-path="url(#pe614479bc8)" style="fill: #0000ff; stroke: #0000ff"/>
    <path d="M 106.298182 239.945802 
C 106.507843 239.945802 106.708946 239.862503 106.857199 239.714249 
C 107.005452 239.565996 107.088751 239.364894 107.088751 239.155232 
C 107.088751 238.945571 107.005452 238.744469 106.857199 238.596215 
C 106.708946 238.447962 106.507843 238.364663 106.298182 238.364663 
C 106.08852 238.364663 105.887418 238.447962 105.739165 238.596215 
C 105.590912 238.744469 105.507612 238.945571 105.507612 239.155232 
C 105.507612 239.364894 105.590912 239.565996 105.739165 239.714249 
C 105.887418 239.862503 106.08852 239.945802 106.298182 239.945802 
z
" clip-path="url(#pe614479bc8)" style="fill: #0000ff; stroke: #0000ff"/>
    <path d="M 125.258007 225.37355 
C 125.467669 225.37355 125.668771 225.290251 125.817024 225.141998 
C 125.965277 224.993745 126.048577 224.792642 126.048577 224.582981 
C 126.048577 224.373319 125.965277 224.172217 125.817024 224.023964 
C 125.668771 223.875711 125.467669 223.792411 125.258007 223.792411 
C 125.048346 223.792411 124.847243 223.875711 124.69899 224.023964 
C 124.550737 224.172217 124.467438 224.373319 124.467438 224.582981 
C 124.467438 224.792642 124.550737 224.993745 124.69899 225.141998 
C 124.847243 225.290251 125.048346 225.37355 125.258007 225.37355 
z
" clip-path="url(#pe614479bc8)" style="fill: #0000ff; stroke: #0000ff"/>
    <path d="M 155.353484 164.763662 
C 155.563145 164.763662 155.764248 164.680363 155.912501 164.53211 
C 156.060754 164.383857 156.144053 164.182754 156.144053 163.973093 
C 156.144053 163.763431 156.060754 163.562329 155.912501 163.414076 
C 155.764248 163.265823 155.563145 163.182523 155.353484 163.182523 
C 155.143822 163.182523 154.94272 163.265823 154.794467 163.414076 
C 154.646214 163.562329 154.562914 163.763431 154.562914 163.973093 
C 154.562914 164.182754 154.646214 164.383857 154.794467 164.53211 
C 154.94272 164.680363 155.143822 164.763662 155.353484 164.763662 
z
" clip-path="url(#pe614479bc8)" style="fill: #0000ff; stroke: #0000ff"/>
    <path d="M 203.077702 141.646392 
C 203.287363 141.646392 203.488466 141.563092 203.636719 141.414839 
C 203.784972 141.266586 203.868271 141.065484 203.868271 140.855822 
C 203.868271 140.646161 203.784972 140.445059 203.636719 140.296805 
C 203.488466 140.148552 203.287363 140.065253 203.077702 140.065253 
C 202.86804 140.065253 202.666938 140.148552 202.518685 140.296805 
C 202.370432 140.445059 202.287132 140.646161 202.287132 140.855822 
C 202.287132 141.065484 202.370432 141.266586 202.518685 141.414839 
C 202.666938 141.563092 202.86804 141.646392 203.077702 141.646392 
z
" clip-path="url(#pe614479bc8)" style="fill: #0000ff; stroke: #0000ff"/>
    <path d="M 278.65728 130.012807 
C 278.866941 130.012807 279.068044 129.929507 279.216297 129.781254 
C 279.36455 129.633001 279.447849 129.431899 279.447849 129.222237 
C 279.447849 129.012576 279.36455 128.811473 279.216297 128.66322 
C 279.068044 128.514967 278.866941 128.431668 278.65728 128.431668 
C 278.447619 128.431668 278.246516 128.514967 278.098263 128.66322 
C 277.95001 128.811473 277.866711 129.012576 277.866711 129.222237 
C 277.866711 129.431899 277.95001 129.633001 278.098263 129.781254 
C 278.246516 129.929507 278.447619 130.012807 278.65728 130.012807 
z
" clip-path="url(#pe614479bc8)" style="fill: #0000ff; stroke: #0000ff"/>
    <path d="M 398.487273 72.245813 
C 398.696934 72.245813 398.898037 72.162514 399.04629 72.014261 
C 399.194543 71.866008 399.277842 71.664905 399.277842 71.455244 
C 399.277842 71.245582 399.194543 71.04448 399.04629 70.896227 
C 398.898037 70.747974 398.696934 70.664674 398.487273 70.664674 
C 398.277611 70.664674 398.076509 70.747974 397.928256 70.896227 
C 397.780003 71.04448 397.696703 71.245582 397.696703 71.455244 
C 397.696703 71.664905 397.780003 71.866008 397.928256 72.014261 
C 398.076509 72.162514 398.277611 72.245813 398.487273 72.245813 
z
" clip-path="url(#pe614479bc8)" style="fill: #0000ff; stroke: #0000ff"/>
    <path d="M 73.865193 243.192394 
C 74.074854 243.192394 74.275957 243.109094 74.42421 242.960841 
C 74.572463 242.812588 74.655762 242.611486 74.655762 242.401824 
C 74.655762 242.192163 74.572463 241.99106 74.42421 241.842807 
C 74.275957 241.694554 74.074854 241.611255 73.865193 241.611255 
C 73.655531 241.611255 73.454429 241.694554 73.306176 241.842807 
C 73.157923 241.99106 73.074623 242.192163 73.074623 242.401824 
C 73.074623 242.611486 73.157923 242.812588 73.306176 242.960841 
C 73.454429 243.109094 73.655531 243.192394 73.865193 243.192394 
z
" clip-path="url(#pe614479bc8)" style="fill: #0000ff; stroke: #0000ff"/>
    <path d="M 73.897658 282.768328 
C 74.10732 282.768328 74.308422 282.685028 74.456675 282.536775 
C 74.604928 282.388522 74.688228 282.18742 74.688228 281.977758 
C 74.688228 281.768097 74.604928 281.566994 74.456675 281.418741 
C 74.308422 281.270488 74.10732 281.187189 73.897658 281.187189 
C 73.687997 281.187189 73.486894 281.270488 73.338641 281.418741 
C 73.190388 281.566994 73.107089 281.768097 73.107089 281.977758 
C 73.107089 282.18742 73.190388 282.388522 73.338641 282.536775 
C 73.486894 282.685028 73.687997 282.768328 73.897658 282.768328 
z
" clip-path="url(#pe614479bc8)" style="fill: #0000ff; stroke: #0000ff"/>
    <path d="M 73.930124 290.772187 
C 74.139785 290.772187 74.340888 290.688888 74.489141 290.540635 
C 74.637394 290.392382 74.720693 290.191279 74.720693 289.981618 
C 74.720693 289.771956 74.637394 289.570854 74.489141 289.422601 
C 74.340888 289.274348 74.139785 289.191048 73.930124 289.191048 
C 73.720462 289.191048 73.51936 289.274348 73.371107 289.422601 
C 73.222854 289.570854 73.139554 289.771956 73.139554 289.981618 
C 73.139554 290.191279 73.222854 290.392382 73.371107 290.540635 
C 73.51936 290.688888 73.720462 290.772187 73.930124 290.772187 
z
" clip-path="url(#pe614479bc8)" style="fill: #0000ff; stroke: #0000ff"/>
    <path d="M 73.962589 269.339967 
C 74.172251 269.339967 74.373353 269.256667 74.521606 269.108414 
C 74.669859 268.960161 74.753159 268.759059 74.753159 268.549397 
C 74.753159 268.339736 74.669859 268.138633 74.521606 267.99038 
C 74.373353 267.842127 74.172251 267.758828 73.962589 267.758828 
C 73.752928 267.758828 73.551825 267.842127 73.403572 267.99038 
C 73.255319 268.138633 73.17202 268.339736 73.17202 268.549397 
C 73.17202 268.759059 73.255319 268.960161 73.403572 269.108414 
C 73.551825 269.256667 73.752928 269.339967 73.962589 269.339967 
z
" clip-path="url(#pe614479bc8)" style="fill: #0000ff; stroke: #0000ff"/>
    <path d="M 74.02752 276.888419 
C 74.237181 276.888419 74.438284 276.805119 74.586537 276.656866 
C 74.73479 276.508613 74.818089 276.307511 74.818089 276.097849 
C 74.818089 275.888188 74.73479 275.687085 74.586537 275.538832 
C 74.438284 275.390579 74.237181 275.30728 74.02752 275.30728 
C 73.817859 275.30728 73.616756 275.390579 73.468503 275.538832 
C 73.32025 275.687085 73.236951 275.888188 73.236951 276.097849 
C 73.236951 276.307511 73.32025 276.508613 73.468503 276.656866 
C 73.616756 276.805119 73.817859 276.888419 74.02752 276.888419 
z
" clip-path="url(#pe614479bc8)" style="fill: #0000ff; stroke: #0000ff"/>
    <path d="M 74.157382 280.574968 
C 74.367043 280.574968 74.568146 280.491669 74.716399 280.343416 
C 74.864652 280.195163 74.947951 279.99406 74.947951 279.784399 
C 74.947951 279.574737 74.864652 279.373635 74.716399 279.225382 
C 74.568146 279.077129 74.367043 278.993829 74.157382 278.993829 
C 73.94772 278.993829 73.746618 279.077129 73.598365 279.225382 
C 73.450112 279.373635 73.366812 279.574737 73.366812 279.784399 
C 73.366812 279.99406 73.450112 280.195163 73.598365 280.343416 
C 73.746618 280.491669 73.94772 280.574968 74.157382 280.574968 
z
" clip-path="url(#pe614479bc8)" style="fill: #0000ff; stroke: #0000ff"/>
    <path d="M 74.319709 285.245701 
C 74.529371 285.245701 74.730473 285.162402 74.878726 285.014149 
C 75.026979 284.865896 75.110279 284.664793 75.110279 284.455132 
C 75.110279 284.24547 75.026979 284.044368 74.878726 283.896115 
C 74.730473 283.747862 74.529371 283.664563 74.319709 283.664563 
C 74.110048 283.664563 73.908945 283.747862 73.760692 283.896115 
C 73.612439 284.044368 73.52914 284.24547 73.52914 284.455132 
C 73.52914 284.664793 73.612439 284.865896 73.760692 285.014149 
C 73.908945 285.162402 74.110048 285.245701 74.319709 285.245701 
z
" clip-path="url(#pe614479bc8)" style="fill: #0000ff; stroke: #0000ff"/>
    <path d="M 74.644364 291.574678 
C 74.854025 291.574678 75.055128 291.491379 75.203381 291.343126 
C 75.351634 291.194873 75.434933 290.99377 75.434933 290.784109 
C 75.434933 290.574447 75.351634 290.373345 75.203381 290.225092 
C 75.055128 290.076839 74.854025 289.99354 74.644364 289.99354 
C 74.434702 289.99354 74.2336 290.076839 74.085347 290.225092 
C 73.937094 290.373345 73.853794 290.574447 73.853794 290.784109 
C 73.853794 290.99377 73.937094 291.194873 74.085347 291.343126 
C 74.2336 291.491379 74.434702 291.574678 74.644364 291.574678 
z
" clip-path="url(#pe614479bc8)" style="fill: #0000ff; stroke: #0000ff"/>
    <path d="M 75.09888 285.650989 
C 75.308541 285.650989 75.509644 285.56769 75.657897 285.419437 
C 75.80615 285.271184 75.889449 285.070081 75.889449 284.86042 
C 75.889449 284.650758 75.80615 284.449656 75.657897 284.301403 
C 75.509644 284.15315 75.308541 284.06985 75.09888 284.06985 
C 74.889219 284.06985 74.688116 284.15315 74.539863 284.301403 
C 74.39161 284.449656 74.308311 284.650758 74.308311 284.86042 
C 74.308311 285.070081 74.39161 285.271184 74.539863 285.419437 
C 74.688116 285.56769 74.889219 285.650989 75.09888 285.650989 
z
" clip-path="url(#pe614479bc8)" style="fill: #0000ff; stroke: #0000ff"/>
    <path d="M 75.878051 276.188271 
C 76.087712 276.188271 76.288815 276.104972 76.437068 275.956719 
C 76.585321 275.808466 76.66862 275.607363 76.66862 275.397702 
C 76.66862 275.18804 76.585321 274.986938 76.437068 274.838685 
C 76.288815 274.690432 76.087712 274.607132 75.878051 274.607132 
C 75.668389 274.607132 75.467287 274.690432 75.319034 274.838685 
C 75.170781 274.986938 75.087481 275.18804 75.087481 275.397702 
C 75.087481 275.607363 75.170781 275.808466 75.319034 275.956719 
C 75.467287 276.104972 75.668389 276.188271 75.878051 276.188271 
z
" clip-path="url(#pe614479bc8)" style="fill: #0000ff; stroke: #0000ff"/>
    <path d="M 77.079273 283.47741 
C 77.288934 283.47741 77.490037 283.394111 77.63829 283.245858 
C 77.786543 283.097605 77.869842 282.896502 77.869842 282.686841 
C 77.869842 282.477179 77.786543 282.276077 77.63829 282.127824 
C 77.490037 281.979571 77.288934 281.896271 77.079273 281.896271 
C 76.869611 281.896271 76.668509 281.979571 76.520256 282.127824 
C 76.372003 282.276077 76.288703 282.477179 76.288703 282.686841 
C 76.288703 282.896502 76.372003 283.097605 76.520256 283.245858 
C 76.668509 283.394111 76.869611 283.47741 77.079273 283.47741 
z
" clip-path="url(#pe614479bc8)" style="fill: #0000ff; stroke: #0000ff"/>
    <path d="M 78.962269 290.462742 
C 79.171931 290.462742 79.373033 290.379442 79.521286 290.231189 
C 79.669539 290.082936 79.752839 289.881834 79.752839 289.672172 
C 79.752839 289.462511 79.669539 289.261408 79.521286 289.113155 
C 79.373033 288.964902 79.171931 288.881603 78.962269 288.881603 
C 78.752608 288.881603 78.551505 288.964902 78.403252 289.113155 
C 78.254999 289.261408 78.1717 289.462511 78.1717 289.672172 
C 78.1717 289.881834 78.254999 290.082936 78.403252 290.231189 
C 78.551505 290.379442 78.752608 290.462742 78.962269 290.462742 
z
" clip-path="url(#pe614479bc8)" style="fill: #0000ff; stroke: #0000ff"/>
    <path d="M 81.981556 286.02884 
C 82.191218 286.02884 82.39232 285.945541 82.540573 285.797288 
C 82.688826 285.649035 82.772126 285.447932 82.772126 285.238271 
C 82.772126 285.028609 82.688826 284.827507 82.540573 284.679254 
C 82.39232 284.531001 82.191218 284.447701 81.981556 284.447701 
C 81.771895 284.447701 81.570792 284.531001 81.422539 284.679254 
C 81.274286 284.827507 81.190987 285.028609 81.190987 285.238271 
C 81.190987 285.447932 81.274286 285.649035 81.422539 285.797288 
C 81.570792 285.945541 81.771895 286.02884 81.981556 286.02884 
z
" clip-path="url(#pe614479bc8)" style="fill: #0000ff; stroke: #0000ff"/>
    <path d="M 86.753978 271.146496 
C 86.96364 271.146496 87.164742 271.063196 87.312995 270.914943 
C 87.461248 270.76669 87.544548 270.565588 87.544548 270.355926 
C 87.544548 270.146265 87.461248 269.945162 87.312995 269.796909 
C 87.164742 269.648656 86.96364 269.565357 86.753978 269.565357 
C 86.544317 269.565357 86.343214 269.648656 86.194961 269.796909 
C 86.046708 269.945162 85.963409 270.146265 85.963409 270.355926 
C 85.963409 270.565588 86.046708 270.76669 86.194961 270.914943 
C 86.343214 271.063196 86.544317 271.146496 86.753978 271.146496 
z
" clip-path="url(#pe614479bc8)" style="fill: #0000ff; stroke: #0000ff"/>
    <path d="M 94.285964 269.726135 
C 94.495625 269.726135 94.696728 269.642835 94.844981 269.494582 
C 94.993234 269.346329 95.076533 269.145227 95.076533 268.935565 
C 95.076533 268.725904 94.993234 268.524801 94.844981 268.376548 
C 94.696728 268.228295 94.495625 268.144996 94.285964 268.144996 
C 94.076302 268.144996 93.8752 268.228295 93.726947 268.376548 
C 93.578694 268.524801 93.495394 268.725904 93.495394 268.935565 
C 93.495394 269.145227 93.578694 269.346329 93.726947 269.494582 
C 93.8752 269.642835 94.076302 269.726135 94.285964 269.726135 
z
" clip-path="url(#pe614479bc8)" style="fill: #0000ff; stroke: #0000ff"/>
    <path d="M 106.298182 248.649956 
C 106.507843 248.649956 106.708946 248.566657 106.857199 248.418404 
C 107.005452 248.270151 107.088751 248.069048 107.088751 247.859387 
C 107.088751 247.649725 107.005452 247.448623 106.857199 247.30037 
C 106.708946 247.152117 106.507843 247.068817 106.298182 247.068817 
C 106.08852 247.068817 105.887418 247.152117 105.739165 247.30037 
C 105.590912 247.448623 105.507612 247.649725 105.507612 247.859387 
C 105.507612 248.069048 105.590912 248.270151 105.739165 248.418404 
C 105.887418 248.566657 106.08852 248.649956 106.298182 248.649956 
z
" clip-path="url(#pe614479bc8)" style="fill: #0000ff; stroke: #0000ff"/>
    <path d="M 125.258007 250.731733 
C 125.467669 250.731733 125.668771 250.648434 125.817024 250.500181 
C 125.965277 250.351928 126.048577 250.150825 126.048577 249.941164 
C 126.048577 249.731502 125.965277 249.5304 125.817024 249.382147 
C 125.668771 249.233894 125.467669 249.150594 125.258007 249.150594 
C 125.048346 249.150594 124.847243 249.233894 124.69899 249.382147 
C 124.550737 249.5304 124.467438 249.731502 124.467438 249.941164 
C 124.467438 250.150825 124.550737 250.351928 124.69899 250.500181 
C 124.847243 250.648434 125.048346 250.731733 125.258007 250.731733 
z
" clip-path="url(#pe614479bc8)" style="fill: #0000ff; stroke: #0000ff"/>
    <path d="M 155.353484 185.753689 
C 155.563145 185.753689 155.764248 185.67039 155.912501 185.522137 
C 156.060754 185.373884 156.144053 185.172781 156.144053 184.96312 
C 156.144053 184.753458 156.060754 184.552356 155.912501 184.404103 
C 155.764248 184.25585 155.563145 184.17255 155.353484 184.17255 
C 155.143822 184.17255 154.94272 184.25585 154.794467 184.404103 
C 154.646214 184.552356 154.562914 184.753458 154.562914 184.96312 
C 154.562914 185.172781 154.646214 185.373884 154.794467 185.522137 
C 154.94272 185.67039 155.143822 185.753689 155.353484 185.753689 
z
" clip-path="url(#pe614479bc8)" style="fill: #0000ff; stroke: #0000ff"/>
    <path d="M 203.077702 154.957533 
C 203.287363 154.957533 203.488466 154.874234 203.636719 154.725981 
C 203.784972 154.577728 203.868271 154.376625 203.868271 154.166964 
C 203.868271 153.957302 203.784972 153.7562 203.636719 153.607947 
C 203.488466 153.459694 203.287363 153.376394 203.077702 153.376394 
C 202.86804 153.376394 202.666938 153.459694 202.518685 153.607947 
C 202.370432 153.7562 202.287132 153.957302 202.287132 154.166964 
C 202.287132 154.376625 202.370432 154.577728 202.518685 154.725981 
C 202.666938 154.874234 202.86804 154.957533 203.077702 154.957533 
z
" clip-path="url(#pe614479bc8)" style="fill: #0000ff; stroke: #0000ff"/>
    <path d="M 278.65728 138.467221 
C 278.866941 138.467221 279.068044 138.383922 279.216297 138.235669 
C 279.36455 138.087416 279.447849 137.886313 279.447849 137.676652 
C 279.447849 137.46699 279.36455 137.265888 279.216297 137.117635 
C 279.068044 136.969382 278.866941 136.886082 278.65728 136.886082 
C 278.447619 136.886082 278.246516 136.969382 278.098263 137.117635 
C 277.95001 137.265888 277.866711 137.46699 277.866711 137.676652 
C 277.866711 137.886313 277.95001 138.087416 278.098263 138.235669 
C 278.246516 138.383922 278.447619 138.467221 278.65728 138.467221 
z
" clip-path="url(#pe614479bc8)" style="fill: #0000ff; stroke: #0000ff"/>
    <path d="M 398.487273 62.987276 
C 398.696934 62.987276 398.898037 62.903976 399.04629 62.755723 
C 399.194543 62.60747 399.277842 62.406368 399.277842 62.196706 
C 399.277842 61.987045 399.194543 61.785942 399.04629 61.637689 
C 398.898037 61.489436 398.696934 61.406137 398.487273 61.406137 
C 398.277611 61.406137 398.076509 61.489436 397.928256 61.637689 
C 397.780003 61.785942 397.696703 61.987045 397.696703 62.196706 
C 397.696703 62.406368 397.780003 62.60747 397.928256 62.755723 
C 398.076509 62.903976 398.277611 62.987276 398.487273 62.987276 
z
" clip-path="url(#pe614479bc8)" style="fill: #0000ff; stroke: #0000ff"/>
    <path d="M 73.865193 237.950478 
C 74.074854 237.950478 74.275957 237.867179 74.42421 237.718925 
C 74.572463 237.570672 74.655762 237.36957 74.655762 237.159908 
C 74.655762 236.950247 74.572463 236.749145 74.42421 236.600891 
C 74.275957 236.452638 74.074854 236.369339 73.865193 236.369339 
C 73.655531 236.369339 73.454429 236.452638 73.306176 236.600891 
C 73.157923 236.749145 73.074623 236.950247 73.074623 237.159908 
C 73.074623 237.36957 73.157923 237.570672 73.306176 237.718925 
C 73.454429 237.867179 73.655531 237.950478 73.865193 237.950478 
z
" clip-path="url(#pe614479bc8)" style="fill: #0000ff; stroke: #0000ff"/>
    <path d="M 73.897658 290.139522 
C 74.10732 290.139522 74.308422 290.056223 74.456675 289.907969 
C 74.604928 289.759716 74.688228 289.558614 74.688228 289.348952 
C 74.688228 289.139291 74.604928 288.938189 74.456675 288.789935 
C 74.308422 288.641682 74.10732 288.558383 73.897658 288.558383 
C 73.687997 288.558383 73.486894 288.641682 73.338641 288.789935 
C 73.190388 288.938189 73.107089 289.139291 73.107089 289.348952 
C 73.107089 289.558614 73.190388 289.759716 73.338641 289.907969 
C 73.486894 290.056223 73.687997 290.139522 73.897658 290.139522 
z
" clip-path="url(#pe614479bc8)" style="fill: #0000ff; stroke: #0000ff"/>
    <path d="M 73.930124 288.359863 
C 74.139785 288.359863 74.340888 288.276563 74.489141 288.12831 
C 74.637394 287.980057 74.720693 287.778955 74.720693 287.569293 
C 74.720693 287.359632 74.637394 287.158529 74.489141 287.010276 
C 74.340888 286.862023 74.139785 286.778724 73.930124 286.778724 
C 73.720462 286.778724 73.51936 286.862023 73.371107 287.010276 
C 73.222854 287.158529 73.139554 287.359632 73.139554 287.569293 
C 73.139554 287.778955 73.222854 287.980057 73.371107 288.12831 
C 73.51936 288.276563 73.720462 288.359863 73.930124 288.359863 
z
" clip-path="url(#pe614479bc8)" style="fill: #0000ff; stroke: #0000ff"/>
    <path d="M 73.962589 279.671935 
C 74.172251 279.671935 74.373353 279.588635 74.521606 279.440382 
C 74.669859 279.292129 74.753159 279.091027 74.753159 278.881365 
C 74.753159 278.671704 74.669859 278.470601 74.521606 278.322348 
C 74.373353 278.174095 74.172251 278.090796 73.962589 278.090796 
C 73.752928 278.090796 73.551825 278.174095 73.403572 278.322348 
C 73.255319 278.470601 73.17202 278.671704 73.17202 278.881365 
C 73.17202 279.091027 73.255319 279.292129 73.403572 279.440382 
C 73.551825 279.588635 73.752928 279.671935 73.962589 279.671935 
z
" clip-path="url(#pe614479bc8)" style="fill: #0000ff; stroke: #0000ff"/>
    <path d="M 74.02752 285.800426 
C 74.237181 285.800426 74.438284 285.717126 74.586537 285.568873 
C 74.73479 285.42062 74.818089 285.219518 74.818089 285.009856 
C 74.818089 284.800195 74.73479 284.599092 74.586537 284.450839 
C 74.438284 284.302586 74.237181 284.219287 74.02752 284.219287 
C 73.817859 284.219287 73.616756 284.302586 73.468503 284.450839 
C 73.32025 284.599092 73.236951 284.800195 73.236951 285.009856 
C 73.236951 285.219518 73.32025 285.42062 73.468503 285.568873 
C 73.616756 285.717126 73.817859 285.800426 74.02752 285.800426 
z
" clip-path="url(#pe614479bc8)" style="fill: #0000ff; stroke: #0000ff"/>
    <path d="M 74.157382 289.992028 
C 74.367043 289.992028 74.568146 289.908728 74.716399 289.760475 
C 74.864652 289.612222 74.947951 289.41112 74.947951 289.201458 
C 74.947951 288.991797 74.864652 288.790694 74.716399 288.642441 
C 74.568146 288.494188 74.367043 288.410889 74.157382 288.410889 
C 73.94772 288.410889 73.746618 288.494188 73.598365 288.642441 
C 73.450112 288.790694 73.366812 288.991797 73.366812 289.201458 
C 73.366812 289.41112 73.450112 289.612222 73.598365 289.760475 
C 73.746618 289.908728 73.94772 289.992028 74.157382 289.992028 
z
" clip-path="url(#pe614479bc8)" style="fill: #0000ff; stroke: #0000ff"/>
    <path d="M 74.319709 279.949761 
C 74.529371 279.949761 74.730473 279.866461 74.878726 279.718208 
C 75.026979 279.569955 75.110279 279.368853 75.110279 279.159191 
C 75.110279 278.94953 75.026979 278.748427 74.878726 278.600174 
C 74.730473 278.451921 74.529371 278.368622 74.319709 278.368622 
C 74.110048 278.368622 73.908945 278.451921 73.760692 278.600174 
C 73.612439 278.748427 73.52914 278.94953 73.52914 279.159191 
C 73.52914 279.368853 73.612439 279.569955 73.760692 279.718208 
C 73.908945 279.866461 74.110048 279.949761 74.319709 279.949761 
z
" clip-path="url(#pe614479bc8)" style="fill: #0000ff; stroke: #0000ff"/>
    <path d="M 74.644364 273.845388 
C 74.854025 273.845388 75.055128 273.762088 75.203381 273.613835 
C 75.351634 273.465582 75.434933 273.26448 75.434933 273.054818 
C 75.434933 272.845157 75.351634 272.644054 75.203381 272.495801 
C 75.055128 272.347548 74.854025 272.264249 74.644364 272.264249 
C 74.434702 272.264249 74.2336 272.347548 74.085347 272.495801 
C 73.937094 272.644054 73.853794 272.845157 73.853794 273.054818 
C 73.853794 273.26448 73.937094 273.465582 74.085347 273.613835 
C 74.2336 273.762088 74.434702 273.845388 74.644364 273.845388 
z
" clip-path="url(#pe614479bc8)" style="fill: #0000ff; stroke: #0000ff"/>
    <path d="M 75.09888 284.059995 
C 75.308541 284.059995 75.509644 283.976696 75.657897 283.828443 
C 75.80615 283.68019 75.889449 283.479087 75.889449 283.269426 
C 75.889449 283.059764 75.80615 282.858662 75.657897 282.710409 
C 75.509644 282.562156 75.308541 282.478857 75.09888 282.478857 
C 74.889219 282.478857 74.688116 282.562156 74.539863 282.710409 
C 74.39161 282.858662 74.308311 283.059764 74.308311 283.269426 
C 74.308311 283.479087 74.39161 283.68019 74.539863 283.828443 
C 74.688116 283.976696 74.889219 284.059995 75.09888 284.059995 
z
" clip-path="url(#pe614479bc8)" style="fill: #0000ff; stroke: #0000ff"/>
    <path d="M 75.878051 281.190854 
C 76.087712 281.190854 76.288815 281.107555 76.437068 280.959302 
C 76.585321 280.811049 76.66862 280.609946 76.66862 280.400285 
C 76.66862 280.190623 76.585321 279.989521 76.437068 279.841268 
C 76.288815 279.693015 76.087712 279.609715 75.878051 279.609715 
C 75.668389 279.609715 75.467287 279.693015 75.319034 279.841268 
C 75.170781 279.989521 75.087481 280.190623 75.087481 280.400285 
C 75.087481 280.609946 75.170781 280.811049 75.319034 280.959302 
C 75.467287 281.107555 75.668389 281.190854 75.878051 281.190854 
z
" clip-path="url(#pe614479bc8)" style="fill: #0000ff; stroke: #0000ff"/>
    <path d="M 77.079273 288.659373 
C 77.288934 288.659373 77.490037 288.576073 77.63829 288.42782 
C 77.786543 288.279567 77.869842 288.078465 77.869842 287.868803 
C 77.869842 287.659142 77.786543 287.458039 77.63829 287.309786 
C 77.490037 287.161533 77.288934 287.078234 77.079273 287.078234 
C 76.869611 287.078234 76.668509 287.161533 76.520256 287.309786 
C 76.372003 287.458039 76.288703 287.659142 76.288703 287.868803 
C 76.288703 288.078465 76.372003 288.279567 76.520256 288.42782 
C 76.668509 288.576073 76.869611 288.659373 77.079273 288.659373 
z
" clip-path="url(#pe614479bc8)" style="fill: #0000ff; stroke: #0000ff"/>
    <path d="M 78.962269 282.04081 
C 79.171931 282.04081 79.373033 281.957511 79.521286 281.809258 
C 79.669539 281.661005 79.752839 281.459902 79.752839 281.250241 
C 79.752839 281.04058 79.669539 280.839477 79.521286 280.691224 
C 79.373033 280.542971 79.171931 280.459672 78.962269 280.459672 
C 78.752608 280.459672 78.551505 280.542971 78.403252 280.691224 
C 78.254999 280.839477 78.1717 281.04058 78.1717 281.250241 
C 78.1717 281.459902 78.254999 281.661005 78.403252 281.809258 
C 78.551505 281.957511 78.752608 282.04081 78.962269 282.04081 
z
" clip-path="url(#pe614479bc8)" style="fill: #0000ff; stroke: #0000ff"/>
    <path d="M 81.981556 271.808094 
C 82.191218 271.808094 82.39232 271.724795 82.540573 271.576542 
C 82.688826 271.428289 82.772126 271.227186 82.772126 271.017525 
C 82.772126 270.807863 82.688826 270.606761 82.540573 270.458508 
C 82.39232 270.310255 82.191218 270.226955 81.981556 270.226955 
C 81.771895 270.226955 81.570792 270.310255 81.422539 270.458508 
C 81.274286 270.606761 81.190987 270.807863 81.190987 271.017525 
C 81.190987 271.227186 81.274286 271.428289 81.422539 271.576542 
C 81.570792 271.724795 81.771895 271.808094 81.981556 271.808094 
z
" clip-path="url(#pe614479bc8)" style="fill: #0000ff; stroke: #0000ff"/>
    <path d="M 86.753978 263.510787 
C 86.96364 263.510787 87.164742 263.427488 87.312995 263.279235 
C 87.461248 263.130982 87.544548 262.929879 87.544548 262.720218 
C 87.544548 262.510556 87.461248 262.309454 87.312995 262.161201 
C 87.164742 262.012948 86.96364 261.929648 86.753978 261.929648 
C 86.544317 261.929648 86.343214 262.012948 86.194961 262.161201 
C 86.046708 262.309454 85.963409 262.510556 85.963409 262.720218 
C 85.963409 262.929879 86.046708 263.130982 86.194961 263.279235 
C 86.343214 263.427488 86.544317 263.510787 86.753978 263.510787 
z
" clip-path="url(#pe614479bc8)" style="fill: #0000ff; stroke: #0000ff"/>
    <path d="M 94.285964 275.016591 
C 94.495625 275.016591 94.696728 274.933292 94.844981 274.785039 
C 94.993234 274.636786 95.076533 274.435683 95.076533 274.226022 
C 95.076533 274.01636 94.993234 273.815258 94.844981 273.667005 
C 94.696728 273.518752 94.495625 273.435452 94.285964 273.435452 
C 94.076302 273.435452 93.8752 273.518752 93.726947 273.667005 
C 93.578694 273.815258 93.495394 274.01636 93.495394 274.226022 
C 93.495394 274.435683 93.578694 274.636786 93.726947 274.785039 
C 93.8752 274.933292 94.076302 275.016591 94.285964 275.016591 
z
" clip-path="url(#pe614479bc8)" style="fill: #0000ff; stroke: #0000ff"/>
    <path d="M 106.298182 251.962618 
C 106.507843 251.962618 106.708946 251.879318 106.857199 251.731065 
C 107.005452 251.582812 107.088751 251.38171 107.088751 251.172048 
C 107.088751 250.962387 107.005452 250.761284 106.857199 250.613031 
C 106.708946 250.464778 106.507843 250.381479 106.298182 250.381479 
C 106.08852 250.381479 105.887418 250.464778 105.739165 250.613031 
C 105.590912 250.761284 105.507612 250.962387 105.507612 251.172048 
C 105.507612 251.38171 105.590912 251.582812 105.739165 251.731065 
C 105.887418 251.879318 106.08852 251.962618 106.298182 251.962618 
z
" clip-path="url(#pe614479bc8)" style="fill: #0000ff; stroke: #0000ff"/>
    <path d="M 125.258007 222.864722 
C 125.467669 222.864722 125.668771 222.781422 125.817024 222.633169 
C 125.965277 222.484916 126.048577 222.283814 126.048577 222.074152 
C 126.048577 221.864491 125.965277 221.663388 125.817024 221.515135 
C 125.668771 221.366882 125.467669 221.283583 125.258007 221.283583 
C 125.048346 221.283583 124.847243 221.366882 124.69899 221.515135 
C 124.550737 221.663388 124.467438 221.864491 124.467438 222.074152 
C 124.467438 222.283814 124.550737 222.484916 124.69899 222.633169 
C 124.847243 222.781422 125.048346 222.864722 125.258007 222.864722 
z
" clip-path="url(#pe614479bc8)" style="fill: #0000ff; stroke: #0000ff"/>
    <path d="M 155.353484 190.260053 
C 155.563145 190.260053 155.764248 190.176754 155.912501 190.028501 
C 156.060754 189.880248 156.144053 189.679145 156.144053 189.469484 
C 156.144053 189.259822 156.060754 189.05872 155.912501 188.910467 
C 155.764248 188.762214 155.563145 188.678914 155.353484 188.678914 
C 155.143822 188.678914 154.94272 188.762214 154.794467 188.910467 
C 154.646214 189.05872 154.562914 189.259822 154.562914 189.469484 
C 154.562914 189.679145 154.646214 189.880248 154.794467 190.028501 
C 154.94272 190.176754 155.143822 190.260053 155.353484 190.260053 
z
" clip-path="url(#pe614479bc8)" style="fill: #0000ff; stroke: #0000ff"/>
    <path d="M 203.077702 177.020714 
C 203.287363 177.020714 203.488466 176.937414 203.636719 176.789161 
C 203.784972 176.640908 203.868271 176.439806 203.868271 176.230144 
C 203.868271 176.020483 203.784972 175.81938 203.636719 175.671127 
C 203.488466 175.522874 203.287363 175.439575 203.077702 175.439575 
C 202.86804 175.439575 202.666938 175.522874 202.518685 175.671127 
C 202.370432 175.81938 202.287132 176.020483 202.287132 176.230144 
C 202.287132 176.439806 202.370432 176.640908 202.518685 176.789161 
C 202.666938 176.937414 202.86804 177.020714 203.077702 177.020714 
z
" clip-path="url(#pe614479bc8)" style="fill: #0000ff; stroke: #0000ff"/>
    <path d="M 278.65728 125.725456 
C 278.866941 125.725456 279.068044 125.642157 279.216297 125.493903 
C 279.36455 125.34565 279.447849 125.144548 279.447849 124.934886 
C 279.447849 124.725225 279.36455 124.524123 279.216297 124.375869 
C 279.068044 124.227616 278.866941 124.144317 278.65728 124.144317 
C 278.447619 124.144317 278.246516 124.227616 278.098263 124.375869 
C 277.95001 124.524123 277.866711 124.725225 277.866711 124.934886 
C 277.866711 125.144548 277.95001 125.34565 278.098263 125.493903 
C 278.246516 125.642157 278.447619 125.725456 278.65728 125.725456 
z
" clip-path="url(#pe614479bc8)" style="fill: #0000ff; stroke: #0000ff"/>
    <path d="M 398.487273 87.96873 
C 398.696934 87.96873 398.898037 87.88543 399.04629 87.737177 
C 399.194543 87.588924 399.277842 87.387822 399.277842 87.17816 
C 399.277842 86.968499 399.194543 86.767396 399.04629 86.619143 
C 398.898037 86.47089 398.696934 86.387591 398.487273 86.387591 
C 398.277611 86.387591 398.076509 86.47089 397.928256 86.619143 
C 397.780003 86.767396 397.696703 86.968499 397.696703 87.17816 
C 397.696703 87.387822 397.780003 87.588924 397.928256 87.737177 
C 398.076509 87.88543 398.277611 87.96873 398.487273 87.96873 
z
" clip-path="url(#pe614479bc8)" style="fill: #0000ff; stroke: #0000ff"/>
   </g>
   <g id="matplotlib.axis_1">
    <g id="xtick_1">
     <g id="line2d_1">
      <defs>
       <path id="m218e5094fc" d="M 0 0 
L 0 3.5 
" style="stroke: #000000; stroke-width: 0.8"/>
      </defs>
      <g>
       <use xlink:href="#m218e5094fc" x="73.832727" y="307.584" style="stroke: #000000; stroke-width: 0.8"/>
      </g>
     </g>
     <g id="text_1">
      <!-- 0 -->
      <g transform="translate(70.651477 322.182437) scale(0.1 -0.1)">
       <defs>
        <path id="DejaVuSans-30" d="M 2034 4250 
Q 1547 4250 1301 3770 
Q 1056 3291 1056 2328 
Q 1056 1369 1301 889 
Q 1547 409 2034 409 
Q 2525 409 2770 889 
Q 3016 1369 3016 2328 
Q 3016 3291 2770 3770 
Q 2525 4250 2034 4250 
z
M 2034 4750 
Q 2819 4750 3233 4129 
Q 3647 3509 3647 2328 
Q 3647 1150 3233 529 
Q 2819 -91 2034 -91 
Q 1250 -91 836 529 
Q 422 1150 422 2328 
Q 422 3509 836 4129 
Q 1250 4750 2034 4750 
z
" transform="scale(0.015625)"/>
       </defs>
       <use xlink:href="#DejaVuSans-30"/>
      </g>
     </g>
    </g>
    <g id="xtick_2">
     <g id="line2d_2">
      <g>
       <use xlink:href="#m218e5094fc" x="138.763636" y="307.584" style="stroke: #000000; stroke-width: 0.8"/>
      </g>
     </g>
     <g id="text_2">
      <!-- 2000 -->
      <g transform="translate(126.038636 322.182437) scale(0.1 -0.1)">
       <defs>
        <path id="DejaVuSans-32" d="M 1228 531 
L 3431 531 
L 3431 0 
L 469 0 
L 469 531 
Q 828 903 1448 1529 
Q 2069 2156 2228 2338 
Q 2531 2678 2651 2914 
Q 2772 3150 2772 3378 
Q 2772 3750 2511 3984 
Q 2250 4219 1831 4219 
Q 1534 4219 1204 4116 
Q 875 4013 500 3803 
L 500 4441 
Q 881 4594 1212 4672 
Q 1544 4750 1819 4750 
Q 2544 4750 2975 4387 
Q 3406 4025 3406 3419 
Q 3406 3131 3298 2873 
Q 3191 2616 2906 2266 
Q 2828 2175 2409 1742 
Q 1991 1309 1228 531 
z
" transform="scale(0.015625)"/>
       </defs>
       <use xlink:href="#DejaVuSans-32"/>
       <use xlink:href="#DejaVuSans-30" x="63.623047"/>
       <use xlink:href="#DejaVuSans-30" x="127.246094"/>
       <use xlink:href="#DejaVuSans-30" x="190.869141"/>
      </g>
     </g>
    </g>
    <g id="xtick_3">
     <g id="line2d_3">
      <g>
       <use xlink:href="#m218e5094fc" x="203.694545" y="307.584" style="stroke: #000000; stroke-width: 0.8"/>
      </g>
     </g>
     <g id="text_3">
      <!-- 4000 -->
      <g transform="translate(190.969545 322.182437) scale(0.1 -0.1)">
       <defs>
        <path id="DejaVuSans-34" d="M 2419 4116 
L 825 1625 
L 2419 1625 
L 2419 4116 
z
M 2253 4666 
L 3047 4666 
L 3047 1625 
L 3713 1625 
L 3713 1100 
L 3047 1100 
L 3047 0 
L 2419 0 
L 2419 1100 
L 313 1100 
L 313 1709 
L 2253 4666 
z
" transform="scale(0.015625)"/>
       </defs>
       <use xlink:href="#DejaVuSans-34"/>
       <use xlink:href="#DejaVuSans-30" x="63.623047"/>
       <use xlink:href="#DejaVuSans-30" x="127.246094"/>
       <use xlink:href="#DejaVuSans-30" x="190.869141"/>
      </g>
     </g>
    </g>
    <g id="xtick_4">
     <g id="line2d_4">
      <g>
       <use xlink:href="#m218e5094fc" x="268.625455" y="307.584" style="stroke: #000000; stroke-width: 0.8"/>
      </g>
     </g>
     <g id="text_4">
      <!-- 6000 -->
      <g transform="translate(255.900455 322.182437) scale(0.1 -0.1)">
       <defs>
        <path id="DejaVuSans-36" d="M 2113 2584 
Q 1688 2584 1439 2293 
Q 1191 2003 1191 1497 
Q 1191 994 1439 701 
Q 1688 409 2113 409 
Q 2538 409 2786 701 
Q 3034 994 3034 1497 
Q 3034 2003 2786 2293 
Q 2538 2584 2113 2584 
z
M 3366 4563 
L 3366 3988 
Q 3128 4100 2886 4159 
Q 2644 4219 2406 4219 
Q 1781 4219 1451 3797 
Q 1122 3375 1075 2522 
Q 1259 2794 1537 2939 
Q 1816 3084 2150 3084 
Q 2853 3084 3261 2657 
Q 3669 2231 3669 1497 
Q 3669 778 3244 343 
Q 2819 -91 2113 -91 
Q 1303 -91 875 529 
Q 447 1150 447 2328 
Q 447 3434 972 4092 
Q 1497 4750 2381 4750 
Q 2619 4750 2861 4703 
Q 3103 4656 3366 4563 
z
" transform="scale(0.015625)"/>
       </defs>
       <use xlink:href="#DejaVuSans-36"/>
       <use xlink:href="#DejaVuSans-30" x="63.623047"/>
       <use xlink:href="#DejaVuSans-30" x="127.246094"/>
       <use xlink:href="#DejaVuSans-30" x="190.869141"/>
      </g>
     </g>
    </g>
    <g id="xtick_5">
     <g id="line2d_5">
      <g>
       <use xlink:href="#m218e5094fc" x="333.556364" y="307.584" style="stroke: #000000; stroke-width: 0.8"/>
      </g>
     </g>
     <g id="text_5">
      <!-- 8000 -->
      <g transform="translate(320.831364 322.182437) scale(0.1 -0.1)">
       <defs>
        <path id="DejaVuSans-38" d="M 2034 2216 
Q 1584 2216 1326 1975 
Q 1069 1734 1069 1313 
Q 1069 891 1326 650 
Q 1584 409 2034 409 
Q 2484 409 2743 651 
Q 3003 894 3003 1313 
Q 3003 1734 2745 1975 
Q 2488 2216 2034 2216 
z
M 1403 2484 
Q 997 2584 770 2862 
Q 544 3141 544 3541 
Q 544 4100 942 4425 
Q 1341 4750 2034 4750 
Q 2731 4750 3128 4425 
Q 3525 4100 3525 3541 
Q 3525 3141 3298 2862 
Q 3072 2584 2669 2484 
Q 3125 2378 3379 2068 
Q 3634 1759 3634 1313 
Q 3634 634 3220 271 
Q 2806 -91 2034 -91 
Q 1263 -91 848 271 
Q 434 634 434 1313 
Q 434 1759 690 2068 
Q 947 2378 1403 2484 
z
M 1172 3481 
Q 1172 3119 1398 2916 
Q 1625 2713 2034 2713 
Q 2441 2713 2670 2916 
Q 2900 3119 2900 3481 
Q 2900 3844 2670 4047 
Q 2441 4250 2034 4250 
Q 1625 4250 1398 4047 
Q 1172 3844 1172 3481 
z
" transform="scale(0.015625)"/>
       </defs>
       <use xlink:href="#DejaVuSans-38"/>
       <use xlink:href="#DejaVuSans-30" x="63.623047"/>
       <use xlink:href="#DejaVuSans-30" x="127.246094"/>
       <use xlink:href="#DejaVuSans-30" x="190.869141"/>
      </g>
     </g>
    </g>
    <g id="xtick_6">
     <g id="line2d_6">
      <g>
       <use xlink:href="#m218e5094fc" x="398.487273" y="307.584" style="stroke: #000000; stroke-width: 0.8"/>
      </g>
     </g>
     <g id="text_6">
      <!-- 10000 -->
      <g transform="translate(382.581023 322.182437) scale(0.1 -0.1)">
       <defs>
        <path id="DejaVuSans-31" d="M 794 531 
L 1825 531 
L 1825 4091 
L 703 3866 
L 703 4441 
L 1819 4666 
L 2450 4666 
L 2450 531 
L 3481 531 
L 3481 0 
L 794 0 
L 794 531 
z
" transform="scale(0.015625)"/>
       </defs>
       <use xlink:href="#DejaVuSans-31"/>
       <use xlink:href="#DejaVuSans-30" x="63.623047"/>
       <use xlink:href="#DejaVuSans-30" x="127.246094"/>
       <use xlink:href="#DejaVuSans-30" x="190.869141"/>
       <use xlink:href="#DejaVuSans-30" x="254.492188"/>
      </g>
     </g>
    </g>
    <g id="text_7">
     <!-- Sequence length -->
     <g transform="translate(193.968594 335.860562) scale(0.1 -0.1)">
      <defs>
       <path id="DejaVuSans-53" d="M 3425 4513 
L 3425 3897 
Q 3066 4069 2747 4153 
Q 2428 4238 2131 4238 
Q 1616 4238 1336 4038 
Q 1056 3838 1056 3469 
Q 1056 3159 1242 3001 
Q 1428 2844 1947 2747 
L 2328 2669 
Q 3034 2534 3370 2195 
Q 3706 1856 3706 1288 
Q 3706 609 3251 259 
Q 2797 -91 1919 -91 
Q 1588 -91 1214 -16 
Q 841 59 441 206 
L 441 856 
Q 825 641 1194 531 
Q 1563 422 1919 422 
Q 2459 422 2753 634 
Q 3047 847 3047 1241 
Q 3047 1584 2836 1778 
Q 2625 1972 2144 2069 
L 1759 2144 
Q 1053 2284 737 2584 
Q 422 2884 422 3419 
Q 422 4038 858 4394 
Q 1294 4750 2059 4750 
Q 2388 4750 2728 4690 
Q 3069 4631 3425 4513 
z
" transform="scale(0.015625)"/>
       <path id="DejaVuSans-65" d="M 3597 1894 
L 3597 1613 
L 953 1613 
Q 991 1019 1311 708 
Q 1631 397 2203 397 
Q 2534 397 2845 478 
Q 3156 559 3463 722 
L 3463 178 
Q 3153 47 2828 -22 
Q 2503 -91 2169 -91 
Q 1331 -91 842 396 
Q 353 884 353 1716 
Q 353 2575 817 3079 
Q 1281 3584 2069 3584 
Q 2775 3584 3186 3129 
Q 3597 2675 3597 1894 
z
M 3022 2063 
Q 3016 2534 2758 2815 
Q 2500 3097 2075 3097 
Q 1594 3097 1305 2825 
Q 1016 2553 972 2059 
L 3022 2063 
z
" transform="scale(0.015625)"/>
       <path id="DejaVuSans-71" d="M 947 1747 
Q 947 1113 1208 752 
Q 1469 391 1925 391 
Q 2381 391 2643 752 
Q 2906 1113 2906 1747 
Q 2906 2381 2643 2742 
Q 2381 3103 1925 3103 
Q 1469 3103 1208 2742 
Q 947 2381 947 1747 
z
M 2906 525 
Q 2725 213 2448 61 
Q 2172 -91 1784 -91 
Q 1150 -91 751 415 
Q 353 922 353 1747 
Q 353 2572 751 3078 
Q 1150 3584 1784 3584 
Q 2172 3584 2448 3432 
Q 2725 3281 2906 2969 
L 2906 3500 
L 3481 3500 
L 3481 -1331 
L 2906 -1331 
L 2906 525 
z
" transform="scale(0.015625)"/>
       <path id="DejaVuSans-75" d="M 544 1381 
L 544 3500 
L 1119 3500 
L 1119 1403 
Q 1119 906 1312 657 
Q 1506 409 1894 409 
Q 2359 409 2629 706 
Q 2900 1003 2900 1516 
L 2900 3500 
L 3475 3500 
L 3475 0 
L 2900 0 
L 2900 538 
Q 2691 219 2414 64 
Q 2138 -91 1772 -91 
Q 1169 -91 856 284 
Q 544 659 544 1381 
z
M 1991 3584 
L 1991 3584 
z
" transform="scale(0.015625)"/>
       <path id="DejaVuSans-6e" d="M 3513 2113 
L 3513 0 
L 2938 0 
L 2938 2094 
Q 2938 2591 2744 2837 
Q 2550 3084 2163 3084 
Q 1697 3084 1428 2787 
Q 1159 2491 1159 1978 
L 1159 0 
L 581 0 
L 581 3500 
L 1159 3500 
L 1159 2956 
Q 1366 3272 1645 3428 
Q 1925 3584 2291 3584 
Q 2894 3584 3203 3211 
Q 3513 2838 3513 2113 
z
" transform="scale(0.015625)"/>
       <path id="DejaVuSans-63" d="M 3122 3366 
L 3122 2828 
Q 2878 2963 2633 3030 
Q 2388 3097 2138 3097 
Q 1578 3097 1268 2742 
Q 959 2388 959 1747 
Q 959 1106 1268 751 
Q 1578 397 2138 397 
Q 2388 397 2633 464 
Q 2878 531 3122 666 
L 3122 134 
Q 2881 22 2623 -34 
Q 2366 -91 2075 -91 
Q 1284 -91 818 406 
Q 353 903 353 1747 
Q 353 2603 823 3093 
Q 1294 3584 2113 3584 
Q 2378 3584 2631 3529 
Q 2884 3475 3122 3366 
z
" transform="scale(0.015625)"/>
       <path id="DejaVuSans-20" transform="scale(0.015625)"/>
       <path id="DejaVuSans-6c" d="M 603 4863 
L 1178 4863 
L 1178 0 
L 603 0 
L 603 4863 
z
" transform="scale(0.015625)"/>
       <path id="DejaVuSans-67" d="M 2906 1791 
Q 2906 2416 2648 2759 
Q 2391 3103 1925 3103 
Q 1463 3103 1205 2759 
Q 947 2416 947 1791 
Q 947 1169 1205 825 
Q 1463 481 1925 481 
Q 2391 481 2648 825 
Q 2906 1169 2906 1791 
z
M 3481 434 
Q 3481 -459 3084 -895 
Q 2688 -1331 1869 -1331 
Q 1566 -1331 1297 -1286 
Q 1028 -1241 775 -1147 
L 775 -588 
Q 1028 -725 1275 -790 
Q 1522 -856 1778 -856 
Q 2344 -856 2625 -561 
Q 2906 -266 2906 331 
L 2906 616 
Q 2728 306 2450 153 
Q 2172 0 1784 0 
Q 1141 0 747 490 
Q 353 981 353 1791 
Q 353 2603 747 3093 
Q 1141 3584 1784 3584 
Q 2172 3584 2450 3431 
Q 2728 3278 2906 2969 
L 2906 3500 
L 3481 3500 
L 3481 434 
z
" transform="scale(0.015625)"/>
       <path id="DejaVuSans-74" d="M 1172 4494 
L 1172 3500 
L 2356 3500 
L 2356 3053 
L 1172 3053 
L 1172 1153 
Q 1172 725 1289 603 
Q 1406 481 1766 481 
L 2356 481 
L 2356 0 
L 1766 0 
Q 1100 0 847 248 
Q 594 497 594 1153 
L 594 3053 
L 172 3053 
L 172 3500 
L 594 3500 
L 594 4494 
L 1172 4494 
z
" transform="scale(0.015625)"/>
       <path id="DejaVuSans-68" d="M 3513 2113 
L 3513 0 
L 2938 0 
L 2938 2094 
Q 2938 2591 2744 2837 
Q 2550 3084 2163 3084 
Q 1697 3084 1428 2787 
Q 1159 2491 1159 1978 
L 1159 0 
L 581 0 
L 581 4863 
L 1159 4863 
L 1159 2956 
Q 1366 3272 1645 3428 
Q 1925 3584 2291 3584 
Q 2894 3584 3203 3211 
Q 3513 2838 3513 2113 
z
" transform="scale(0.015625)"/>
      </defs>
      <use xlink:href="#DejaVuSans-53"/>
      <use xlink:href="#DejaVuSans-65" x="63.476562"/>
      <use xlink:href="#DejaVuSans-71" x="125"/>
      <use xlink:href="#DejaVuSans-75" x="188.476562"/>
      <use xlink:href="#DejaVuSans-65" x="251.855469"/>
      <use xlink:href="#DejaVuSans-6e" x="313.378906"/>
      <use xlink:href="#DejaVuSans-63" x="376.757812"/>
      <use xlink:href="#DejaVuSans-65" x="431.738281"/>
      <use xlink:href="#DejaVuSans-20" x="493.261719"/>
      <use xlink:href="#DejaVuSans-6c" x="525.048828"/>
      <use xlink:href="#DejaVuSans-65" x="552.832031"/>
      <use xlink:href="#DejaVuSans-6e" x="614.355469"/>
      <use xlink:href="#DejaVuSans-67" x="677.734375"/>
      <use xlink:href="#DejaVuSans-74" x="741.210938"/>
      <use xlink:href="#DejaVuSans-68" x="780.419922"/>
     </g>
    </g>
   </g>
   <g id="matplotlib.axis_2">
    <g id="ytick_1">
     <g id="line2d_7">
      <defs>
       <path id="ma16208594b" d="M 0 0 
L -3.5 0 
" style="stroke: #000000; stroke-width: 0.8"/>
      </defs>
      <g>
       <use xlink:href="#ma16208594b" x="57.6" y="274.254965" style="stroke: #000000; stroke-width: 0.8"/>
      </g>
     </g>
     <g id="text_8">
      <!-- 0.0 -->
      <g transform="translate(34.696875 278.054184) scale(0.1 -0.1)">
       <defs>
        <path id="DejaVuSans-2e" d="M 684 794 
L 1344 794 
L 1344 0 
L 684 0 
L 684 794 
z
" transform="scale(0.015625)"/>
       </defs>
       <use xlink:href="#DejaVuSans-30"/>
       <use xlink:href="#DejaVuSans-2e" x="63.623047"/>
       <use xlink:href="#DejaVuSans-30" x="95.410156"/>
      </g>
     </g>
    </g>
    <g id="ytick_2">
     <g id="line2d_8">
      <g>
       <use xlink:href="#ma16208594b" x="57.6" y="226.633716" style="stroke: #000000; stroke-width: 0.8"/>
      </g>
     </g>
     <g id="text_9">
      <!-- 0.1 -->
      <g transform="translate(34.696875 230.432934) scale(0.1 -0.1)">
       <use xlink:href="#DejaVuSans-30"/>
       <use xlink:href="#DejaVuSans-2e" x="63.623047"/>
       <use xlink:href="#DejaVuSans-31" x="95.410156"/>
      </g>
     </g>
    </g>
    <g id="ytick_3">
     <g id="line2d_9">
      <g>
       <use xlink:href="#ma16208594b" x="57.6" y="179.012466" style="stroke: #000000; stroke-width: 0.8"/>
      </g>
     </g>
     <g id="text_10">
      <!-- 0.2 -->
      <g transform="translate(34.696875 182.811685) scale(0.1 -0.1)">
       <use xlink:href="#DejaVuSans-30"/>
       <use xlink:href="#DejaVuSans-2e" x="63.623047"/>
       <use xlink:href="#DejaVuSans-32" x="95.410156"/>
      </g>
     </g>
    </g>
    <g id="ytick_4">
     <g id="line2d_10">
      <g>
       <use xlink:href="#ma16208594b" x="57.6" y="131.391217" style="stroke: #000000; stroke-width: 0.8"/>
      </g>
     </g>
     <g id="text_11">
      <!-- 0.3 -->
      <g transform="translate(34.696875 135.190436) scale(0.1 -0.1)">
       <defs>
        <path id="DejaVuSans-33" d="M 2597 2516 
Q 3050 2419 3304 2112 
Q 3559 1806 3559 1356 
Q 3559 666 3084 287 
Q 2609 -91 1734 -91 
Q 1441 -91 1130 -33 
Q 819 25 488 141 
L 488 750 
Q 750 597 1062 519 
Q 1375 441 1716 441 
Q 2309 441 2620 675 
Q 2931 909 2931 1356 
Q 2931 1769 2642 2001 
Q 2353 2234 1838 2234 
L 1294 2234 
L 1294 2753 
L 1863 2753 
Q 2328 2753 2575 2939 
Q 2822 3125 2822 3475 
Q 2822 3834 2567 4026 
Q 2313 4219 1838 4219 
Q 1578 4219 1281 4162 
Q 984 4106 628 3988 
L 628 4550 
Q 988 4650 1302 4700 
Q 1616 4750 1894 4750 
Q 2613 4750 3031 4423 
Q 3450 4097 3450 3541 
Q 3450 3153 3228 2886 
Q 3006 2619 2597 2516 
z
" transform="scale(0.015625)"/>
       </defs>
       <use xlink:href="#DejaVuSans-30"/>
       <use xlink:href="#DejaVuSans-2e" x="63.623047"/>
       <use xlink:href="#DejaVuSans-33" x="95.410156"/>
      </g>
     </g>
    </g>
    <g id="ytick_5">
     <g id="line2d_11">
      <g>
       <use xlink:href="#ma16208594b" x="57.6" y="83.769968" style="stroke: #000000; stroke-width: 0.8"/>
      </g>
     </g>
     <g id="text_12">
      <!-- 0.4 -->
      <g transform="translate(34.696875 87.569186) scale(0.1 -0.1)">
       <use xlink:href="#DejaVuSans-30"/>
       <use xlink:href="#DejaVuSans-2e" x="63.623047"/>
       <use xlink:href="#DejaVuSans-34" x="95.410156"/>
      </g>
     </g>
    </g>
    <g id="text_13">
     <!-- Excitation -->
     <g transform="translate(28.617187 199.299094) rotate(-90) scale(0.1 -0.1)">
      <defs>
       <path id="DejaVuSans-45" d="M 628 4666 
L 3578 4666 
L 3578 4134 
L 1259 4134 
L 1259 2753 
L 3481 2753 
L 3481 2222 
L 1259 2222 
L 1259 531 
L 3634 531 
L 3634 0 
L 628 0 
L 628 4666 
z
" transform="scale(0.015625)"/>
       <path id="DejaVuSans-78" d="M 3513 3500 
L 2247 1797 
L 3578 0 
L 2900 0 
L 1881 1375 
L 863 0 
L 184 0 
L 1544 1831 
L 300 3500 
L 978 3500 
L 1906 2253 
L 2834 3500 
L 3513 3500 
z
" transform="scale(0.015625)"/>
       <path id="DejaVuSans-69" d="M 603 3500 
L 1178 3500 
L 1178 0 
L 603 0 
L 603 3500 
z
M 603 4863 
L 1178 4863 
L 1178 4134 
L 603 4134 
L 603 4863 
z
" transform="scale(0.015625)"/>
       <path id="DejaVuSans-61" d="M 2194 1759 
Q 1497 1759 1228 1600 
Q 959 1441 959 1056 
Q 959 750 1161 570 
Q 1363 391 1709 391 
Q 2188 391 2477 730 
Q 2766 1069 2766 1631 
L 2766 1759 
L 2194 1759 
z
M 3341 1997 
L 3341 0 
L 2766 0 
L 2766 531 
Q 2569 213 2275 61 
Q 1981 -91 1556 -91 
Q 1019 -91 701 211 
Q 384 513 384 1019 
Q 384 1609 779 1909 
Q 1175 2209 1959 2209 
L 2766 2209 
L 2766 2266 
Q 2766 2663 2505 2880 
Q 2244 3097 1772 3097 
Q 1472 3097 1187 3025 
Q 903 2953 641 2809 
L 641 3341 
Q 956 3463 1253 3523 
Q 1550 3584 1831 3584 
Q 2591 3584 2966 3190 
Q 3341 2797 3341 1997 
z
" transform="scale(0.015625)"/>
       <path id="DejaVuSans-6f" d="M 1959 3097 
Q 1497 3097 1228 2736 
Q 959 2375 959 1747 
Q 959 1119 1226 758 
Q 1494 397 1959 397 
Q 2419 397 2687 759 
Q 2956 1122 2956 1747 
Q 2956 2369 2687 2733 
Q 2419 3097 1959 3097 
z
M 1959 3584 
Q 2709 3584 3137 3096 
Q 3566 2609 3566 1747 
Q 3566 888 3137 398 
Q 2709 -91 1959 -91 
Q 1206 -91 779 398 
Q 353 888 353 1747 
Q 353 2609 779 3096 
Q 1206 3584 1959 3584 
z
" transform="scale(0.015625)"/>
      </defs>
      <use xlink:href="#DejaVuSans-45"/>
      <use xlink:href="#DejaVuSans-78" x="63.183594"/>
      <use xlink:href="#DejaVuSans-63" x="120.613281"/>
      <use xlink:href="#DejaVuSans-69" x="175.59375"/>
      <use xlink:href="#DejaVuSans-74" x="203.376953"/>
      <use xlink:href="#DejaVuSans-61" x="242.585938"/>
      <use xlink:href="#DejaVuSans-74" x="303.865234"/>
      <use xlink:href="#DejaVuSans-69" x="343.074219"/>
      <use xlink:href="#DejaVuSans-6f" x="370.857422"/>
      <use xlink:href="#DejaVuSans-6e" x="432.039062"/>
     </g>
    </g>
   </g>
   <g id="line2d_12">
    <path d="M 73.832727 282.969263 
L 82.079777 273.201836 
L 90.391765 263.702393 
L 98.76869 254.466729 
L 107.210552 245.49057 
L 115.717352 236.769581 
L 124.289089 228.299371 
L 132.958233 220.045159 
L 141.692313 212.035043 
L 150.5238 204.236278 
L 159.452693 196.647394 
L 168.478992 189.26672 
L 177.635166 182.067359 
L 186.888746 175.074245 
L 196.2722 168.261971 
L 205.78553 161.630844 
L 215.428734 155.180858 
L 225.201813 148.91171 
L 235.104767 142.822814 
L 245.170065 136.894599 
L 255.397706 131.128359 
L 265.820159 125.50788 
L 276.404955 120.05234 
L 287.184564 114.746231 
L 298.191454 109.57658 
L 309.393156 104.561139 
L 320.822139 99.687352 
L 332.510871 94.944877 
L 344.459354 90.337613 
L 356.667585 85.868822 
L 369.168035 81.53018 
L 381.993172 77.315113 
L 395.142996 73.228446 
L 398.487273 72.225519 
L 398.487273 72.225519 
" clip-path="url(#pe614479bc8)" style="fill: none; stroke: #0000ff; stroke-width: 1.5; stroke-linecap: square"/>
   </g>
   <g id="patch_3">
    <path d="M 57.6 307.584 
L 57.6 41.472 
" style="fill: none; stroke: #000000; stroke-width: 0.8; stroke-linejoin: miter; stroke-linecap: square"/>
   </g>
   <g id="patch_4">
    <path d="M 414.72 307.584 
L 414.72 41.472 
" style="fill: none; stroke: #000000; stroke-width: 0.8; stroke-linejoin: miter; stroke-linecap: square"/>
   </g>
   <g id="patch_5">
    <path d="M 57.6 307.584 
L 414.72 307.584 
" style="fill: none; stroke: #000000; stroke-width: 0.8; stroke-linejoin: miter; stroke-linecap: square"/>
   </g>
   <g id="patch_6">
    <path d="M 57.6 41.472 
L 414.72 41.472 
" style="fill: none; stroke: #000000; stroke-width: 0.8; stroke-linejoin: miter; stroke-linecap: square"/>
   </g>
  </g>
 </g>
 <defs>
  <clipPath id="pe614479bc8">
   <rect x="57.6" y="41.472" width="357.12" height="266.112"/>
  </clipPath>
 </defs>
</svg>
