<?xml version="1.0" encoding="utf-8" standalone="no"?>
<!DOCTYPE svg PUBLIC "-//W3C//DTD SVG 1.1//EN"
  "http://www.w3.org/Graphics/SVG/1.1/DTD/svg11.dtd">
<svg xmlns:xlink="http://www.w3.org/1999/xlink" width="460.8pt" height="345.6pt" viewBox="0 0 460.8 345.6" xmlns="http://www.w3.org/2000/svg" version="1.1">
 <metadata>
  <rdf:RDF xmlns:dc="http://purl.org/dc/elements/1.1/" xmlns:cc="http://creativecommons.org/ns#" xmlns:rdf="http://www.w3.org/1999/02/22-rdf-syntax-ns#">
   <cc:Work>
    <dc:type rdf:resource="http://purl.org/dc/dcmitype/StillImage"/>
    <dc:date>2024-10-10T07:34:22.949643</dc:date>
    <dc:format>image/svg+xml</dc:format>
    <dc:creator>
     <cc:Agent>
      <dc:title>Matplotlib v3.9.1, https://matplotlib.org/</dc:title>
     </cc:Agent>
    </dc:creator>
   </cc:Work>
  </rdf:RDF>
 </metadata>
 <defs>
  <style type="text/css">*{stroke-linejoin: round; stroke-linecap: butt}</style>
 </defs>
 <g id="figure_1">
  <g id="patch_1">
   <path d="M 0 345.6 
L 460.8 345.6 
L 460.8 0 
L 0 0 
z
" style="fill: #ffffff"/>
  </g>
  <g id="axes_1">
   <g id="patch_2">
    <path d="M 57.6 307.584 
L 414.72 307.584 
L 414.72 41.472 
L 57.6 41.472 
z
" style="fill: #ffffff"/>
   </g>
   <g id="matplotlib.axis_1">
    <g id="xtick_1">
     <g id="line2d_1">
      <defs>
       <path id="m44fba1b6cc" d="M 0 0 
L 0 3.5 
" style="stroke: #000000; stroke-width: 0.8"/>
      </defs>
      <g>
       <use xlink:href="#m44fba1b6cc" x="73.832727" y="307.584" style="stroke: #000000; stroke-width: 0.8"/>
      </g>
     </g>
     <g id="text_1">
      <!-- 0.0 -->
      <g transform="translate(61.905384 325.981656) scale(0.15 -0.15)">
       <defs>
        <path id="DejaVuSans-30" d="M 2034 4250 
Q 1547 4250 1301 3770 
Q 1056 3291 1056 2328 
Q 1056 1369 1301 889 
Q 1547 409 2034 409 
Q 2525 409 2770 889 
Q 3016 1369 3016 2328 
Q 3016 3291 2770 3770 
Q 2525 4250 2034 4250 
z
M 2034 4750 
Q 2819 4750 3233 4129 
Q 3647 3509 3647 2328 
Q 3647 1150 3233 529 
Q 2819 -91 2034 -91 
Q 1250 -91 836 529 
Q 422 1150 422 2328 
Q 422 3509 836 4129 
Q 1250 4750 2034 4750 
z
" transform="scale(0.015625)"/>
        <path id="DejaVuSans-2e" d="M 684 794 
L 1344 794 
L 1344 0 
L 684 0 
L 684 794 
z
" transform="scale(0.015625)"/>
       </defs>
       <use xlink:href="#DejaVuSans-30"/>
       <use xlink:href="#DejaVuSans-2e" x="63.623047"/>
       <use xlink:href="#DejaVuSans-30" x="95.410156"/>
      </g>
     </g>
    </g>
    <g id="xtick_2">
     <g id="line2d_2">
      <g>
       <use xlink:href="#m44fba1b6cc" x="146.354218" y="307.584" style="stroke: #000000; stroke-width: 0.8"/>
      </g>
     </g>
     <g id="text_2">
      <!-- 0.2 -->
      <g transform="translate(134.426874 325.981656) scale(0.15 -0.15)">
       <defs>
        <path id="DejaVuSans-32" d="M 1228 531 
L 3431 531 
L 3431 0 
L 469 0 
L 469 531 
Q 828 903 1448 1529 
Q 2069 2156 2228 2338 
Q 2531 2678 2651 2914 
Q 2772 3150 2772 3378 
Q 2772 3750 2511 3984 
Q 2250 4219 1831 4219 
Q 1534 4219 1204 4116 
Q 875 4013 500 3803 
L 500 4441 
Q 881 4594 1212 4672 
Q 1544 4750 1819 4750 
Q 2544 4750 2975 4387 
Q 3406 4025 3406 3419 
Q 3406 3131 3298 2873 
Q 3191 2616 2906 2266 
Q 2828 2175 2409 1742 
Q 1991 1309 1228 531 
z
" transform="scale(0.015625)"/>
       </defs>
       <use xlink:href="#DejaVuSans-30"/>
       <use xlink:href="#DejaVuSans-2e" x="63.623047"/>
       <use xlink:href="#DejaVuSans-32" x="95.410156"/>
      </g>
     </g>
    </g>
    <g id="xtick_3">
     <g id="line2d_3">
      <g>
       <use xlink:href="#m44fba1b6cc" x="218.875708" y="307.584" style="stroke: #000000; stroke-width: 0.8"/>
      </g>
     </g>
     <g id="text_3">
      <!-- 0.4 -->
      <g transform="translate(206.948365 325.981656) scale(0.15 -0.15)">
       <defs>
        <path id="DejaVuSans-34" d="M 2419 4116 
L 825 1625 
L 2419 1625 
L 2419 4116 
z
M 2253 4666 
L 3047 4666 
L 3047 1625 
L 3713 1625 
L 3713 1100 
L 3047 1100 
L 3047 0 
L 2419 0 
L 2419 1100 
L 313 1100 
L 313 1709 
L 2253 4666 
z
" transform="scale(0.015625)"/>
       </defs>
       <use xlink:href="#DejaVuSans-30"/>
       <use xlink:href="#DejaVuSans-2e" x="63.623047"/>
       <use xlink:href="#DejaVuSans-34" x="95.410156"/>
      </g>
     </g>
    </g>
    <g id="xtick_4">
     <g id="line2d_4">
      <g>
       <use xlink:href="#m44fba1b6cc" x="291.397199" y="307.584" style="stroke: #000000; stroke-width: 0.8"/>
      </g>
     </g>
     <g id="text_4">
      <!-- 0.6 -->
      <g transform="translate(279.469855 325.981656) scale(0.15 -0.15)">
       <defs>
        <path id="DejaVuSans-36" d="M 2113 2584 
Q 1688 2584 1439 2293 
Q 1191 2003 1191 1497 
Q 1191 994 1439 701 
Q 1688 409 2113 409 
Q 2538 409 2786 701 
Q 3034 994 3034 1497 
Q 3034 2003 2786 2293 
Q 2538 2584 2113 2584 
z
M 3366 4563 
L 3366 3988 
Q 3128 4100 2886 4159 
Q 2644 4219 2406 4219 
Q 1781 4219 1451 3797 
Q 1122 3375 1075 2522 
Q 1259 2794 1537 2939 
Q 1816 3084 2150 3084 
Q 2853 3084 3261 2657 
Q 3669 2231 3669 1497 
Q 3669 778 3244 343 
Q 2819 -91 2113 -91 
Q 1303 -91 875 529 
Q 447 1150 447 2328 
Q 447 3434 972 4092 
Q 1497 4750 2381 4750 
Q 2619 4750 2861 4703 
Q 3103 4656 3366 4563 
z
" transform="scale(0.015625)"/>
       </defs>
       <use xlink:href="#DejaVuSans-30"/>
       <use xlink:href="#DejaVuSans-2e" x="63.623047"/>
       <use xlink:href="#DejaVuSans-36" x="95.410156"/>
      </g>
     </g>
    </g>
    <g id="xtick_5">
     <g id="line2d_5">
      <g>
       <use xlink:href="#m44fba1b6cc" x="363.91869" y="307.584" style="stroke: #000000; stroke-width: 0.8"/>
      </g>
     </g>
     <g id="text_5">
      <!-- 0.8 -->
      <g transform="translate(351.991346 325.981656) scale(0.15 -0.15)">
       <defs>
        <path id="DejaVuSans-38" d="M 2034 2216 
Q 1584 2216 1326 1975 
Q 1069 1734 1069 1313 
Q 1069 891 1326 650 
Q 1584 409 2034 409 
Q 2484 409 2743 651 
Q 3003 894 3003 1313 
Q 3003 1734 2745 1975 
Q 2488 2216 2034 2216 
z
M 1403 2484 
Q 997 2584 770 2862 
Q 544 3141 544 3541 
Q 544 4100 942 4425 
Q 1341 4750 2034 4750 
Q 2731 4750 3128 4425 
Q 3525 4100 3525 3541 
Q 3525 3141 3298 2862 
Q 3072 2584 2669 2484 
Q 3125 2378 3379 2068 
Q 3634 1759 3634 1313 
Q 3634 634 3220 271 
Q 2806 -91 2034 -91 
Q 1263 -91 848 271 
Q 434 634 434 1313 
Q 434 1759 690 2068 
Q 947 2378 1403 2484 
z
M 1172 3481 
Q 1172 3119 1398 2916 
Q 1625 2713 2034 2713 
Q 2441 2713 2670 2916 
Q 2900 3119 2900 3481 
Q 2900 3844 2670 4047 
Q 2441 4250 2034 4250 
Q 1625 4250 1398 4047 
Q 1172 3844 1172 3481 
z
" transform="scale(0.015625)"/>
       </defs>
       <use xlink:href="#DejaVuSans-30"/>
       <use xlink:href="#DejaVuSans-2e" x="63.623047"/>
       <use xlink:href="#DejaVuSans-38" x="95.410156"/>
      </g>
     </g>
    </g>
   </g>
   <g id="matplotlib.axis_2">
    <g id="ytick_1">
     <g id="line2d_6">
      <defs>
       <path id="m391b197337" d="M 0 0 
L -3.5 0 
" style="stroke: #000000; stroke-width: 0.8"/>
      </defs>
      <g>
       <use xlink:href="#m391b197337" x="57.6" y="295.488" style="stroke: #000000; stroke-width: 0.8"/>
      </g>
     </g>
     <g id="text_6">
      <!-- 0.0 -->
      <g transform="translate(26.745313 301.186828) scale(0.15 -0.15)">
       <use xlink:href="#DejaVuSans-30"/>
       <use xlink:href="#DejaVuSans-2e" x="63.623047"/>
       <use xlink:href="#DejaVuSans-30" x="95.410156"/>
      </g>
     </g>
    </g>
    <g id="ytick_2">
     <g id="line2d_7">
      <g>
       <use xlink:href="#m391b197337" x="57.6" y="245.276131" style="stroke: #000000; stroke-width: 0.8"/>
      </g>
     </g>
     <g id="text_7">
      <!-- 0.2 -->
      <g transform="translate(26.745313 250.974959) scale(0.15 -0.15)">
       <use xlink:href="#DejaVuSans-30"/>
       <use xlink:href="#DejaVuSans-2e" x="63.623047"/>
       <use xlink:href="#DejaVuSans-32" x="95.410156"/>
      </g>
     </g>
    </g>
    <g id="ytick_3">
     <g id="line2d_8">
      <g>
       <use xlink:href="#m391b197337" x="57.6" y="195.064263" style="stroke: #000000; stroke-width: 0.8"/>
      </g>
     </g>
     <g id="text_8">
      <!-- 0.4 -->
      <g transform="translate(26.745313 200.763091) scale(0.15 -0.15)">
       <use xlink:href="#DejaVuSans-30"/>
       <use xlink:href="#DejaVuSans-2e" x="63.623047"/>
       <use xlink:href="#DejaVuSans-34" x="95.410156"/>
      </g>
     </g>
    </g>
    <g id="ytick_4">
     <g id="line2d_9">
      <g>
       <use xlink:href="#m391b197337" x="57.6" y="144.852394" style="stroke: #000000; stroke-width: 0.8"/>
      </g>
     </g>
     <g id="text_9">
      <!-- 0.6 -->
      <g transform="translate(26.745313 150.551222) scale(0.15 -0.15)">
       <use xlink:href="#DejaVuSans-30"/>
       <use xlink:href="#DejaVuSans-2e" x="63.623047"/>
       <use xlink:href="#DejaVuSans-36" x="95.410156"/>
      </g>
     </g>
    </g>
    <g id="ytick_5">
     <g id="line2d_10">
      <g>
       <use xlink:href="#m391b197337" x="57.6" y="94.640525" style="stroke: #000000; stroke-width: 0.8"/>
      </g>
     </g>
     <g id="text_10">
      <!-- 0.8 -->
      <g transform="translate(26.745313 100.339353) scale(0.15 -0.15)">
       <use xlink:href="#DejaVuSans-30"/>
       <use xlink:href="#DejaVuSans-2e" x="63.623047"/>
       <use xlink:href="#DejaVuSans-38" x="95.410156"/>
      </g>
     </g>
    </g>
    <g id="ytick_6">
     <g id="line2d_11">
      <g>
       <use xlink:href="#m391b197337" x="57.6" y="44.428657" style="stroke: #000000; stroke-width: 0.8"/>
      </g>
     </g>
     <g id="text_11">
      <!-- 1.0 -->
      <g transform="translate(26.745313 50.127485) scale(0.15 -0.15)">
       <defs>
        <path id="DejaVuSans-31" d="M 794 531 
L 1825 531 
L 1825 4091 
L 703 3866 
L 703 4441 
L 1819 4666 
L 2450 4666 
L 2450 531 
L 3481 531 
L 3481 0 
L 794 0 
L 794 531 
z
" transform="scale(0.015625)"/>
       </defs>
       <use xlink:href="#DejaVuSans-31"/>
       <use xlink:href="#DejaVuSans-2e" x="63.623047"/>
       <use xlink:href="#DejaVuSans-30" x="95.410156"/>
      </g>
     </g>
    </g>
   </g>
   <g id="line2d_12">
    <path d="M 73.832727 295.488 
L 75.969694 295.084582 
L 78.10666 293.877416 
L 80.243627 291.875744 
L 82.380593 289.094862 
L 84.51756 285.555968 
L 86.654527 281.285953 
L 88.791493 276.317132 
L 90.928459 270.68692 
L 93.065426 264.43746 
L 95.202393 257.61522 
L 97.33936 250.27053 
L 101.613294 234.231461 
L 105.887226 216.780974 
L 112.298124 189.031762 
L 120.845993 151.694142 
L 125.119927 133.935271 
L 129.393861 117.337345 
L 133.66779 102.247566 
L 135.804752 95.359018 
L 137.941724 88.947697 
L 140.078686 83.037726 
L 142.215653 77.648631 
L 144.352625 72.795378 
L 146.489587 68.488383 
L 148.626554 64.733645 
L 150.763521 61.532885 
L 152.900488 58.883695 
L 155.03745 56.779773 
L 157.174423 55.21114 
L 159.31139 54.164417 
L 161.448351 53.623143 
L 163.585324 53.568 
L 165.722286 53.977199 
L 167.859258 54.826782 
L 169.99622 56.090967 
L 172.133192 57.742427 
L 174.270154 59.752672 
L 176.407127 62.09231 
L 178.544088 64.731385 
L 180.68105 67.639667 
L 182.818022 70.786915 
L 187.091946 77.678709 
L 191.365891 85.173491 
L 197.776776 97.070486 
L 208.461617 117.077998 
L 212.735551 124.693856 
L 217.009474 131.908969 
L 221.283419 138.633373 
L 225.557343 144.796392 
L 229.831277 150.344257 
L 234.105222 155.237824 
L 236.242173 157.430468 
L 238.379145 159.45041 
L 240.516118 161.295942 
L 242.65308 162.965944 
L 244.790052 164.4598 
L 246.927014 165.777392 
L 249.063976 166.919108 
L 251.200948 167.885757 
L 253.337921 168.678611 
L 255.474871 169.29933 
L 257.611844 169.750055 
L 259.748816 170.033337 
L 261.885789 170.152139 
L 264.02274 170.109857 
L 266.159712 169.910338 
L 268.296685 169.557854 
L 270.433657 169.057103 
L 272.570608 168.413234 
L 274.707581 167.631858 
L 276.844553 166.718976 
L 281.118477 164.52494 
L 285.3924 161.887766 
L 289.666345 158.870304 
L 293.94029 155.541075 
L 300.351164 150.124372 
L 317.446923 135.107828 
L 321.720825 131.676065 
L 325.99477 128.542435 
L 330.268715 125.790829 
L 334.54266 123.503984 
L 336.679611 122.560275 
L 338.816561 121.762992 
L 340.953534 121.121907 
L 343.090506 120.646595 
L 345.227479 120.346426 
L 347.36443 120.230453 
L 349.501402 120.307459 
L 351.638375 120.58584 
L 353.775347 121.073587 
L 355.91232 121.778181 
L 358.049271 122.706566 
L 360.186222 123.865088 
L 362.323194 125.259327 
L 364.460167 126.894102 
L 366.597139 128.773334 
L 368.734112 130.899971 
L 370.871084 133.275928 
L 373.008035 135.901894 
L 375.145008 138.77739 
L 377.281958 141.90056 
L 379.418931 145.268111 
L 381.555903 148.875346 
L 385.829827 156.78196 
L 390.103772 165.550548 
L 394.377717 175.084642 
L 394.377717 175.084642 
" clip-path="url(#pd7d722f360)" style="fill: none; stroke: #1f77b4; stroke-width: 1.5; stroke-linecap: square"/>
   </g>
   <g id="line2d_13">
    <path d="M 73.832727 291.72211 
L 77.942278 289.839165 
L 82.05183 286.700923 
L 86.161381 279.169143 
L 90.270932 267.662257 
L 94.380484 257.829099 
L 98.490035 249.878885 
L 102.599586 223.099224 
L 106.709136 205.106636 
L 110.818687 194.436614 
L 114.92824 177.908542 
L 119.03779 162.008115 
L 123.147344 140.040422 
L 127.256894 126.859807 
L 131.366444 108.867222 
L 135.475995 104.892114 
L 139.585545 84.388936 
L 143.695096 79.158532 
L 147.804646 68.279294 
L 151.914197 61.165947 
L 156.023753 58.655354 
L 160.133303 55.517112 
L 164.242854 53.843382 
L 168.352404 54.680246 
L 172.46196 58.864569 
L 176.571505 64.513404 
L 180.681061 68.906943 
L 184.790606 74.346563 
L 188.900162 85.435015 
L 193.009707 86.271881 
L 197.119263 97.987982 
L 201.228808 107.193493 
L 205.338363 110.959383 
L 209.447919 120.583323 
L 213.557464 127.696673 
L 217.66702 131.253345 
L 221.776565 142.969449 
L 225.886121 146.316906 
L 229.995666 155.313201 
L 234.105222 154.476335 
L 238.214778 156.568498 
L 242.324323 167.23852 
L 246.433879 173.09657 
L 250.543424 167.65695 
L 254.65298 168.075383 
L 258.762525 174.351867 
L 262.872081 172.259707 
L 266.981637 170.795192 
L 271.091192 177.699324 
L 275.200727 166.610871 
L 279.310282 166.820087 
L 283.419838 162.844981 
L 287.529394 161.171251 
L 291.638928 156.150064 
L 295.748484 160.12517 
L 299.85804 155.103983 
L 303.967596 151.547311 
L 308.077152 147.153772 
L 312.186686 136.902181 
L 316.296242 138.57591 
L 320.405798 131.462563 
L 324.515354 128.115104 
L 328.624888 126.650592 
L 332.734444 118.700378 
L 336.844 114.725273 
L 340.953556 110.122519 
L 345.063111 110.750167 
L 349.172646 113.051543 
L 353.282202 110.750167 
L 357.391757 104.682899 
L 361.501313 98.824849 
L 365.610847 105.310547 
L 369.720403 102.381521 
L 373.829959 106.775059 
L 377.939515 107.402708 
L 382.049071 113.679191 
L 386.158605 123.51235 
L 390.268161 123.093917 
L 394.377717 126.232159 
L 398.487273 134.391587 
" clip-path="url(#pd7d722f360)" style="fill: none; stroke: #ff7f0e; stroke-width: 1.5; stroke-linecap: square"/>
   </g>
   <g id="line2d_14">
    <path d="M 262.388603 307.584 
L 262.388603 41.472 
" clip-path="url(#pd7d722f360)" style="fill: none; stroke-dasharray: 5.55,2.4; stroke-dashoffset: 0; stroke: #808080; stroke-width: 1.5"/>
   </g>
   <g id="line2d_15">
    <path d="M 57.6 169.958328 
L 414.72 169.958328 
" clip-path="url(#pd7d722f360)" style="fill: none; stroke-dasharray: 5.55,2.4; stroke-dashoffset: 0; stroke: #808080; stroke-width: 1.5"/>
   </g>
   <g id="patch_3">
    <path d="M 57.6 307.584 
L 57.6 41.472 
" style="fill: none; stroke: #000000; stroke-width: 0.8; stroke-linejoin: miter; stroke-linecap: square"/>
   </g>
   <g id="patch_4">
    <path d="M 414.72 307.584 
L 414.72 41.472 
" style="fill: none; stroke: #000000; stroke-width: 0.8; stroke-linejoin: miter; stroke-linecap: square"/>
   </g>
   <g id="patch_5">
    <path d="M 57.6 307.584 
L 414.72 307.584 
" style="fill: none; stroke: #000000; stroke-width: 0.8; stroke-linejoin: miter; stroke-linecap: square"/>
   </g>
   <g id="patch_6">
    <path d="M 57.6 41.472 
L 414.72 41.472 
" style="fill: none; stroke: #000000; stroke-width: 0.8; stroke-linejoin: miter; stroke-linecap: square"/>
   </g>
  </g>
 </g>
 <defs>
  <clipPath id="pd7d722f360">
   <rect x="57.6" y="41.472" width="357.12" height="266.112"/>
  </clipPath>
 </defs>
</svg>
