<?xml version="1.0" encoding="utf-8" standalone="no"?>
<!DOCTYPE svg PUBLIC "-//W3C//DTD SVG 1.1//EN"
  "http://www.w3.org/Graphics/SVG/1.1/DTD/svg11.dtd">
<svg xmlns:xlink="http://www.w3.org/1999/xlink" width="1296pt" height="504pt" viewBox="0 0 1296 504" xmlns="http://www.w3.org/2000/svg" version="1.1">
 <metadata>
  <rdf:RDF xmlns:dc="http://purl.org/dc/elements/1.1/" xmlns:cc="http://creativecommons.org/ns#" xmlns:rdf="http://www.w3.org/1999/02/22-rdf-syntax-ns#">
   <cc:Work>
    <dc:type rdf:resource="http://purl.org/dc/dcmitype/StillImage"/>
    <dc:date>2024-10-10T07:34:22.488821</dc:date>
    <dc:format>image/svg+xml</dc:format>
    <dc:creator>
     <cc:Agent>
      <dc:title>Matplotlib v3.9.1, https://matplotlib.org/</dc:title>
     </cc:Agent>
    </dc:creator>
   </cc:Work>
  </rdf:RDF>
 </metadata>
 <defs>
  <style type="text/css">*{stroke-linejoin: round; stroke-linecap: butt}</style>
 </defs>
 <g id="figure_1">
  <g id="patch_1">
   <path d="M 0 504 
L 1296 504 
L 1296 0 
L 0 0 
z
" style="fill: #ffffff"/>
  </g>
  <g id="axes_1">
   <g id="patch_2">
    <path d="M 162 448.56 
L 618.545455 448.56 
L 618.545455 60.48 
L 162 60.48 
z
" style="fill: #ffffff"/>
   </g>
   <g id="matplotlib.axis_1">
    <g id="xtick_1">
     <g id="line2d_1">
      <defs>
       <path id="mc64ced5357" d="M 0 0 
L 0 3.5 
" style="stroke: #000000; stroke-width: 0.8"/>
      </defs>
      <g>
       <use xlink:href="#mc64ced5357" x="182.752066" y="448.56" style="stroke: #000000; stroke-width: 0.8"/>
      </g>
     </g>
     <g id="text_1">
      <!-- 0.00 -->
      <g transform="translate(166.052847 466.957656) scale(0.15 -0.15)">
       <defs>
        <path id="DejaVuSans-30" d="M 2034 4250 
Q 1547 4250 1301 3770 
Q 1056 3291 1056 2328 
Q 1056 1369 1301 889 
Q 1547 409 2034 409 
Q 2525 409 2770 889 
Q 3016 1369 3016 2328 
Q 3016 3291 2770 3770 
Q 2525 4250 2034 4250 
z
M 2034 4750 
Q 2819 4750 3233 4129 
Q 3647 3509 3647 2328 
Q 3647 1150 3233 529 
Q 2819 -91 2034 -91 
Q 1250 -91 836 529 
Q 422 1150 422 2328 
Q 422 3509 836 4129 
Q 1250 4750 2034 4750 
z
" transform="scale(0.015625)"/>
        <path id="DejaVuSans-2e" d="M 684 794 
L 1344 794 
L 1344 0 
L 684 0 
L 684 794 
z
" transform="scale(0.015625)"/>
       </defs>
       <use xlink:href="#DejaVuSans-30"/>
       <use xlink:href="#DejaVuSans-2e" x="63.623047"/>
       <use xlink:href="#DejaVuSans-30" x="95.410156"/>
       <use xlink:href="#DejaVuSans-30" x="159.033203"/>
      </g>
     </g>
    </g>
    <g id="xtick_2">
     <g id="line2d_2">
      <g>
       <use xlink:href="#mc64ced5357" x="243.787553" y="448.56" style="stroke: #000000; stroke-width: 0.8"/>
      </g>
     </g>
     <g id="text_2">
      <!-- 0.25 -->
      <g transform="translate(227.088334 466.957656) scale(0.15 -0.15)">
       <defs>
        <path id="DejaVuSans-32" d="M 1228 531 
L 3431 531 
L 3431 0 
L 469 0 
L 469 531 
Q 828 903 1448 1529 
Q 2069 2156 2228 2338 
Q 2531 2678 2651 2914 
Q 2772 3150 2772 3378 
Q 2772 3750 2511 3984 
Q 2250 4219 1831 4219 
Q 1534 4219 1204 4116 
Q 875 4013 500 3803 
L 500 4441 
Q 881 4594 1212 4672 
Q 1544 4750 1819 4750 
Q 2544 4750 2975 4387 
Q 3406 4025 3406 3419 
Q 3406 3131 3298 2873 
Q 3191 2616 2906 2266 
Q 2828 2175 2409 1742 
Q 1991 1309 1228 531 
z
" transform="scale(0.015625)"/>
        <path id="DejaVuSans-35" d="M 691 4666 
L 3169 4666 
L 3169 4134 
L 1269 4134 
L 1269 2991 
Q 1406 3038 1543 3061 
Q 1681 3084 1819 3084 
Q 2600 3084 3056 2656 
Q 3513 2228 3513 1497 
Q 3513 744 3044 326 
Q 2575 -91 1722 -91 
Q 1428 -91 1123 -41 
Q 819 9 494 109 
L 494 744 
Q 775 591 1075 516 
Q 1375 441 1709 441 
Q 2250 441 2565 725 
Q 2881 1009 2881 1497 
Q 2881 1984 2565 2268 
Q 2250 2553 1709 2553 
Q 1456 2553 1204 2497 
Q 953 2441 691 2322 
L 691 4666 
z
" transform="scale(0.015625)"/>
       </defs>
       <use xlink:href="#DejaVuSans-30"/>
       <use xlink:href="#DejaVuSans-2e" x="63.623047"/>
       <use xlink:href="#DejaVuSans-32" x="95.410156"/>
       <use xlink:href="#DejaVuSans-35" x="159.033203"/>
      </g>
     </g>
    </g>
    <g id="xtick_3">
     <g id="line2d_3">
      <g>
       <use xlink:href="#mc64ced5357" x="304.82304" y="448.56" style="stroke: #000000; stroke-width: 0.8"/>
      </g>
     </g>
     <g id="text_3">
      <!-- 0.50 -->
      <g transform="translate(288.123821 466.957656) scale(0.15 -0.15)">
       <use xlink:href="#DejaVuSans-30"/>
       <use xlink:href="#DejaVuSans-2e" x="63.623047"/>
       <use xlink:href="#DejaVuSans-35" x="95.410156"/>
       <use xlink:href="#DejaVuSans-30" x="159.033203"/>
      </g>
     </g>
    </g>
    <g id="xtick_4">
     <g id="line2d_4">
      <g>
       <use xlink:href="#mc64ced5357" x="365.858527" y="448.56" style="stroke: #000000; stroke-width: 0.8"/>
      </g>
     </g>
     <g id="text_4">
      <!-- 0.75 -->
      <g transform="translate(349.159308 466.957656) scale(0.15 -0.15)">
       <defs>
        <path id="DejaVuSans-37" d="M 525 4666 
L 3525 4666 
L 3525 4397 
L 1831 0 
L 1172 0 
L 2766 4134 
L 525 4134 
L 525 4666 
z
" transform="scale(0.015625)"/>
       </defs>
       <use xlink:href="#DejaVuSans-30"/>
       <use xlink:href="#DejaVuSans-2e" x="63.623047"/>
       <use xlink:href="#DejaVuSans-37" x="95.410156"/>
       <use xlink:href="#DejaVuSans-35" x="159.033203"/>
      </g>
     </g>
    </g>
    <g id="xtick_5">
     <g id="line2d_5">
      <g>
       <use xlink:href="#mc64ced5357" x="426.894014" y="448.56" style="stroke: #000000; stroke-width: 0.8"/>
      </g>
     </g>
     <g id="text_5">
      <!-- 1.00 -->
      <g transform="translate(410.194795 466.957656) scale(0.15 -0.15)">
       <defs>
        <path id="DejaVuSans-31" d="M 794 531 
L 1825 531 
L 1825 4091 
L 703 3866 
L 703 4441 
L 1819 4666 
L 2450 4666 
L 2450 531 
L 3481 531 
L 3481 0 
L 794 0 
L 794 531 
z
" transform="scale(0.015625)"/>
       </defs>
       <use xlink:href="#DejaVuSans-31"/>
       <use xlink:href="#DejaVuSans-2e" x="63.623047"/>
       <use xlink:href="#DejaVuSans-30" x="95.410156"/>
       <use xlink:href="#DejaVuSans-30" x="159.033203"/>
      </g>
     </g>
    </g>
    <g id="xtick_6">
     <g id="line2d_6">
      <g>
       <use xlink:href="#mc64ced5357" x="487.9295" y="448.56" style="stroke: #000000; stroke-width: 0.8"/>
      </g>
     </g>
     <g id="text_6">
      <!-- 1.25 -->
      <g transform="translate(471.230282 466.957656) scale(0.15 -0.15)">
       <use xlink:href="#DejaVuSans-31"/>
       <use xlink:href="#DejaVuSans-2e" x="63.623047"/>
       <use xlink:href="#DejaVuSans-32" x="95.410156"/>
       <use xlink:href="#DejaVuSans-35" x="159.033203"/>
      </g>
     </g>
    </g>
    <g id="xtick_7">
     <g id="line2d_7">
      <g>
       <use xlink:href="#mc64ced5357" x="548.964987" y="448.56" style="stroke: #000000; stroke-width: 0.8"/>
      </g>
     </g>
     <g id="text_7">
      <!-- 1.50 -->
      <g transform="translate(532.265769 466.957656) scale(0.15 -0.15)">
       <use xlink:href="#DejaVuSans-31"/>
       <use xlink:href="#DejaVuSans-2e" x="63.623047"/>
       <use xlink:href="#DejaVuSans-35" x="95.410156"/>
       <use xlink:href="#DejaVuSans-30" x="159.033203"/>
      </g>
     </g>
    </g>
    <g id="xtick_8">
     <g id="line2d_8">
      <g>
       <use xlink:href="#mc64ced5357" x="610.000474" y="448.56" style="stroke: #000000; stroke-width: 0.8"/>
      </g>
     </g>
     <g id="text_8">
      <!-- 1.75 -->
      <g transform="translate(593.301255 466.957656) scale(0.15 -0.15)">
       <use xlink:href="#DejaVuSans-31"/>
       <use xlink:href="#DejaVuSans-2e" x="63.623047"/>
       <use xlink:href="#DejaVuSans-37" x="95.410156"/>
       <use xlink:href="#DejaVuSans-35" x="159.033203"/>
      </g>
     </g>
    </g>
    <g id="text_9">
     <!-- Pulse amplitude -->
     <g transform="translate(330.239915 485.474844) scale(0.15 -0.15)">
      <defs>
       <path id="DejaVuSans-50" d="M 1259 4147 
L 1259 2394 
L 2053 2394 
Q 2494 2394 2734 2622 
Q 2975 2850 2975 3272 
Q 2975 3691 2734 3919 
Q 2494 4147 2053 4147 
L 1259 4147 
z
M 628 4666 
L 2053 4666 
Q 2838 4666 3239 4311 
Q 3641 3956 3641 3272 
Q 3641 2581 3239 2228 
Q 2838 1875 2053 1875 
L 1259 1875 
L 1259 0 
L 628 0 
L 628 4666 
z
" transform="scale(0.015625)"/>
       <path id="DejaVuSans-75" d="M 544 1381 
L 544 3500 
L 1119 3500 
L 1119 1403 
Q 1119 906 1312 657 
Q 1506 409 1894 409 
Q 2359 409 2629 706 
Q 2900 1003 2900 1516 
L 2900 3500 
L 3475 3500 
L 3475 0 
L 2900 0 
L 2900 538 
Q 2691 219 2414 64 
Q 2138 -91 1772 -91 
Q 1169 -91 856 284 
Q 544 659 544 1381 
z
M 1991 3584 
L 1991 3584 
z
" transform="scale(0.015625)"/>
       <path id="DejaVuSans-6c" d="M 603 4863 
L 1178 4863 
L 1178 0 
L 603 0 
L 603 4863 
z
" transform="scale(0.015625)"/>
       <path id="DejaVuSans-73" d="M 2834 3397 
L 2834 2853 
Q 2591 2978 2328 3040 
Q 2066 3103 1784 3103 
Q 1356 3103 1142 2972 
Q 928 2841 928 2578 
Q 928 2378 1081 2264 
Q 1234 2150 1697 2047 
L 1894 2003 
Q 2506 1872 2764 1633 
Q 3022 1394 3022 966 
Q 3022 478 2636 193 
Q 2250 -91 1575 -91 
Q 1294 -91 989 -36 
Q 684 19 347 128 
L 347 722 
Q 666 556 975 473 
Q 1284 391 1588 391 
Q 1994 391 2212 530 
Q 2431 669 2431 922 
Q 2431 1156 2273 1281 
Q 2116 1406 1581 1522 
L 1381 1569 
Q 847 1681 609 1914 
Q 372 2147 372 2553 
Q 372 3047 722 3315 
Q 1072 3584 1716 3584 
Q 2034 3584 2315 3537 
Q 2597 3491 2834 3397 
z
" transform="scale(0.015625)"/>
       <path id="DejaVuSans-65" d="M 3597 1894 
L 3597 1613 
L 953 1613 
Q 991 1019 1311 708 
Q 1631 397 2203 397 
Q 2534 397 2845 478 
Q 3156 559 3463 722 
L 3463 178 
Q 3153 47 2828 -22 
Q 2503 -91 2169 -91 
Q 1331 -91 842 396 
Q 353 884 353 1716 
Q 353 2575 817 3079 
Q 1281 3584 2069 3584 
Q 2775 3584 3186 3129 
Q 3597 2675 3597 1894 
z
M 3022 2063 
Q 3016 2534 2758 2815 
Q 2500 3097 2075 3097 
Q 1594 3097 1305 2825 
Q 1016 2553 972 2059 
L 3022 2063 
z
" transform="scale(0.015625)"/>
       <path id="DejaVuSans-20" transform="scale(0.015625)"/>
       <path id="DejaVuSans-61" d="M 2194 1759 
Q 1497 1759 1228 1600 
Q 959 1441 959 1056 
Q 959 750 1161 570 
Q 1363 391 1709 391 
Q 2188 391 2477 730 
Q 2766 1069 2766 1631 
L 2766 1759 
L 2194 1759 
z
M 3341 1997 
L 3341 0 
L 2766 0 
L 2766 531 
Q 2569 213 2275 61 
Q 1981 -91 1556 -91 
Q 1019 -91 701 211 
Q 384 513 384 1019 
Q 384 1609 779 1909 
Q 1175 2209 1959 2209 
L 2766 2209 
L 2766 2266 
Q 2766 2663 2505 2880 
Q 2244 3097 1772 3097 
Q 1472 3097 1187 3025 
Q 903 2953 641 2809 
L 641 3341 
Q 956 3463 1253 3523 
Q 1550 3584 1831 3584 
Q 2591 3584 2966 3190 
Q 3341 2797 3341 1997 
z
" transform="scale(0.015625)"/>
       <path id="DejaVuSans-6d" d="M 3328 2828 
Q 3544 3216 3844 3400 
Q 4144 3584 4550 3584 
Q 5097 3584 5394 3201 
Q 5691 2819 5691 2113 
L 5691 0 
L 5113 0 
L 5113 2094 
Q 5113 2597 4934 2840 
Q 4756 3084 4391 3084 
Q 3944 3084 3684 2787 
Q 3425 2491 3425 1978 
L 3425 0 
L 2847 0 
L 2847 2094 
Q 2847 2600 2669 2842 
Q 2491 3084 2119 3084 
Q 1678 3084 1418 2786 
Q 1159 2488 1159 1978 
L 1159 0 
L 581 0 
L 581 3500 
L 1159 3500 
L 1159 2956 
Q 1356 3278 1631 3431 
Q 1906 3584 2284 3584 
Q 2666 3584 2933 3390 
Q 3200 3197 3328 2828 
z
" transform="scale(0.015625)"/>
       <path id="DejaVuSans-70" d="M 1159 525 
L 1159 -1331 
L 581 -1331 
L 581 3500 
L 1159 3500 
L 1159 2969 
Q 1341 3281 1617 3432 
Q 1894 3584 2278 3584 
Q 2916 3584 3314 3078 
Q 3713 2572 3713 1747 
Q 3713 922 3314 415 
Q 2916 -91 2278 -91 
Q 1894 -91 1617 61 
Q 1341 213 1159 525 
z
M 3116 1747 
Q 3116 2381 2855 2742 
Q 2594 3103 2138 3103 
Q 1681 3103 1420 2742 
Q 1159 2381 1159 1747 
Q 1159 1113 1420 752 
Q 1681 391 2138 391 
Q 2594 391 2855 752 
Q 3116 1113 3116 1747 
z
" transform="scale(0.015625)"/>
       <path id="DejaVuSans-69" d="M 603 3500 
L 1178 3500 
L 1178 0 
L 603 0 
L 603 3500 
z
M 603 4863 
L 1178 4863 
L 1178 4134 
L 603 4134 
L 603 4863 
z
" transform="scale(0.015625)"/>
       <path id="DejaVuSans-74" d="M 1172 4494 
L 1172 3500 
L 2356 3500 
L 2356 3053 
L 1172 3053 
L 1172 1153 
Q 1172 725 1289 603 
Q 1406 481 1766 481 
L 2356 481 
L 2356 0 
L 1766 0 
Q 1100 0 847 248 
Q 594 497 594 1153 
L 594 3053 
L 172 3053 
L 172 3500 
L 594 3500 
L 594 4494 
L 1172 4494 
z
" transform="scale(0.015625)"/>
       <path id="DejaVuSans-64" d="M 2906 2969 
L 2906 4863 
L 3481 4863 
L 3481 0 
L 2906 0 
L 2906 525 
Q 2725 213 2448 61 
Q 2172 -91 1784 -91 
Q 1150 -91 751 415 
Q 353 922 353 1747 
Q 353 2572 751 3078 
Q 1150 3584 1784 3584 
Q 2172 3584 2448 3432 
Q 2725 3281 2906 2969 
z
M 947 1747 
Q 947 1113 1208 752 
Q 1469 391 1925 391 
Q 2381 391 2643 752 
Q 2906 1113 2906 1747 
Q 2906 2381 2643 2742 
Q 2381 3103 1925 3103 
Q 1469 3103 1208 2742 
Q 947 2381 947 1747 
z
" transform="scale(0.015625)"/>
      </defs>
      <use xlink:href="#DejaVuSans-50"/>
      <use xlink:href="#DejaVuSans-75" x="58.552734"/>
      <use xlink:href="#DejaVuSans-6c" x="121.931641"/>
      <use xlink:href="#DejaVuSans-73" x="149.714844"/>
      <use xlink:href="#DejaVuSans-65" x="201.814453"/>
      <use xlink:href="#DejaVuSans-20" x="263.337891"/>
      <use xlink:href="#DejaVuSans-61" x="295.125"/>
      <use xlink:href="#DejaVuSans-6d" x="356.404297"/>
      <use xlink:href="#DejaVuSans-70" x="453.816406"/>
      <use xlink:href="#DejaVuSans-6c" x="517.292969"/>
      <use xlink:href="#DejaVuSans-69" x="545.076172"/>
      <use xlink:href="#DejaVuSans-74" x="572.859375"/>
      <use xlink:href="#DejaVuSans-75" x="612.068359"/>
      <use xlink:href="#DejaVuSans-64" x="675.447266"/>
      <use xlink:href="#DejaVuSans-65" x="738.923828"/>
     </g>
    </g>
   </g>
   <g id="matplotlib.axis_2">
    <g id="ytick_1">
     <g id="line2d_9">
      <defs>
       <path id="m95c9d96d58" d="M 0 0 
L -3.5 0 
" style="stroke: #000000; stroke-width: 0.8"/>
      </defs>
      <g>
       <use xlink:href="#m95c9d96d58" x="162" y="430.92" style="stroke: #000000; stroke-width: 0.8"/>
      </g>
     </g>
     <g id="text_10">
      <!-- 0.0 -->
      <g transform="translate(131.145312 436.618828) scale(0.15 -0.15)">
       <use xlink:href="#DejaVuSans-30"/>
       <use xlink:href="#DejaVuSans-2e" x="63.623047"/>
       <use xlink:href="#DejaVuSans-30" x="95.410156"/>
      </g>
     </g>
    </g>
    <g id="ytick_2">
     <g id="line2d_10">
      <g>
       <use xlink:href="#m95c9d96d58" x="162" y="357.694358" style="stroke: #000000; stroke-width: 0.8"/>
      </g>
     </g>
     <g id="text_11">
      <!-- 0.2 -->
      <g transform="translate(131.145312 363.393186) scale(0.15 -0.15)">
       <use xlink:href="#DejaVuSans-30"/>
       <use xlink:href="#DejaVuSans-2e" x="63.623047"/>
       <use xlink:href="#DejaVuSans-32" x="95.410156"/>
      </g>
     </g>
    </g>
    <g id="ytick_3">
     <g id="line2d_11">
      <g>
       <use xlink:href="#m95c9d96d58" x="162" y="284.468716" style="stroke: #000000; stroke-width: 0.8"/>
      </g>
     </g>
     <g id="text_12">
      <!-- 0.4 -->
      <g transform="translate(131.145312 290.167545) scale(0.15 -0.15)">
       <defs>
        <path id="DejaVuSans-34" d="M 2419 4116 
L 825 1625 
L 2419 1625 
L 2419 4116 
z
M 2253 4666 
L 3047 4666 
L 3047 1625 
L 3713 1625 
L 3713 1100 
L 3047 1100 
L 3047 0 
L 2419 0 
L 2419 1100 
L 313 1100 
L 313 1709 
L 2253 4666 
z
" transform="scale(0.015625)"/>
       </defs>
       <use xlink:href="#DejaVuSans-30"/>
       <use xlink:href="#DejaVuSans-2e" x="63.623047"/>
       <use xlink:href="#DejaVuSans-34" x="95.410156"/>
      </g>
     </g>
    </g>
    <g id="ytick_4">
     <g id="line2d_12">
      <g>
       <use xlink:href="#m95c9d96d58" x="162" y="211.243075" style="stroke: #000000; stroke-width: 0.8"/>
      </g>
     </g>
     <g id="text_13">
      <!-- 0.6 -->
      <g transform="translate(131.145312 216.941903) scale(0.15 -0.15)">
       <defs>
        <path id="DejaVuSans-36" d="M 2113 2584 
Q 1688 2584 1439 2293 
Q 1191 2003 1191 1497 
Q 1191 994 1439 701 
Q 1688 409 2113 409 
Q 2538 409 2786 701 
Q 3034 994 3034 1497 
Q 3034 2003 2786 2293 
Q 2538 2584 2113 2584 
z
M 3366 4563 
L 3366 3988 
Q 3128 4100 2886 4159 
Q 2644 4219 2406 4219 
Q 1781 4219 1451 3797 
Q 1122 3375 1075 2522 
Q 1259 2794 1537 2939 
Q 1816 3084 2150 3084 
Q 2853 3084 3261 2657 
Q 3669 2231 3669 1497 
Q 3669 778 3244 343 
Q 2819 -91 2113 -91 
Q 1303 -91 875 529 
Q 447 1150 447 2328 
Q 447 3434 972 4092 
Q 1497 4750 2381 4750 
Q 2619 4750 2861 4703 
Q 3103 4656 3366 4563 
z
" transform="scale(0.015625)"/>
       </defs>
       <use xlink:href="#DejaVuSans-30"/>
       <use xlink:href="#DejaVuSans-2e" x="63.623047"/>
       <use xlink:href="#DejaVuSans-36" x="95.410156"/>
      </g>
     </g>
    </g>
    <g id="ytick_5">
     <g id="line2d_13">
      <g>
       <use xlink:href="#m95c9d96d58" x="162" y="138.017433" style="stroke: #000000; stroke-width: 0.8"/>
      </g>
     </g>
     <g id="text_14">
      <!-- 0.8 -->
      <g transform="translate(131.145312 143.716261) scale(0.15 -0.15)">
       <defs>
        <path id="DejaVuSans-38" d="M 2034 2216 
Q 1584 2216 1326 1975 
Q 1069 1734 1069 1313 
Q 1069 891 1326 650 
Q 1584 409 2034 409 
Q 2484 409 2743 651 
Q 3003 894 3003 1313 
Q 3003 1734 2745 1975 
Q 2488 2216 2034 2216 
z
M 1403 2484 
Q 997 2584 770 2862 
Q 544 3141 544 3541 
Q 544 4100 942 4425 
Q 1341 4750 2034 4750 
Q 2731 4750 3128 4425 
Q 3525 4100 3525 3541 
Q 3525 3141 3298 2862 
Q 3072 2584 2669 2484 
Q 3125 2378 3379 2068 
Q 3634 1759 3634 1313 
Q 3634 634 3220 271 
Q 2806 -91 2034 -91 
Q 1263 -91 848 271 
Q 434 634 434 1313 
Q 434 1759 690 2068 
Q 947 2378 1403 2484 
z
M 1172 3481 
Q 1172 3119 1398 2916 
Q 1625 2713 2034 2713 
Q 2441 2713 2670 2916 
Q 2900 3119 2900 3481 
Q 2900 3844 2670 4047 
Q 2441 4250 2034 4250 
Q 1625 4250 1398 4047 
Q 1172 3844 1172 3481 
z
" transform="scale(0.015625)"/>
       </defs>
       <use xlink:href="#DejaVuSans-30"/>
       <use xlink:href="#DejaVuSans-2e" x="63.623047"/>
       <use xlink:href="#DejaVuSans-38" x="95.410156"/>
      </g>
     </g>
    </g>
    <g id="ytick_6">
     <g id="line2d_14">
      <g>
       <use xlink:href="#m95c9d96d58" x="162" y="64.791791" style="stroke: #000000; stroke-width: 0.8"/>
      </g>
     </g>
     <g id="text_15">
      <!-- 1.0 -->
      <g transform="translate(131.145312 70.490619) scale(0.15 -0.15)">
       <use xlink:href="#DejaVuSans-31"/>
       <use xlink:href="#DejaVuSans-2e" x="63.623047"/>
       <use xlink:href="#DejaVuSans-30" x="95.410156"/>
      </g>
     </g>
    </g>
    <g id="text_16">
     <!-- Excitation -->
     <g transform="translate(124.025781 291.676641) rotate(-90) scale(0.15 -0.15)">
      <defs>
       <path id="DejaVuSans-45" d="M 628 4666 
L 3578 4666 
L 3578 4134 
L 1259 4134 
L 1259 2753 
L 3481 2753 
L 3481 2222 
L 1259 2222 
L 1259 531 
L 3634 531 
L 3634 0 
L 628 0 
L 628 4666 
z
" transform="scale(0.015625)"/>
       <path id="DejaVuSans-78" d="M 3513 3500 
L 2247 1797 
L 3578 0 
L 2900 0 
L 1881 1375 
L 863 0 
L 184 0 
L 1544 1831 
L 300 3500 
L 978 3500 
L 1906 2253 
L 2834 3500 
L 3513 3500 
z
" transform="scale(0.015625)"/>
       <path id="DejaVuSans-63" d="M 3122 3366 
L 3122 2828 
Q 2878 2963 2633 3030 
Q 2388 3097 2138 3097 
Q 1578 3097 1268 2742 
Q 959 2388 959 1747 
Q 959 1106 1268 751 
Q 1578 397 2138 397 
Q 2388 397 2633 464 
Q 2878 531 3122 666 
L 3122 134 
Q 2881 22 2623 -34 
Q 2366 -91 2075 -91 
Q 1284 -91 818 406 
Q 353 903 353 1747 
Q 353 2603 823 3093 
Q 1294 3584 2113 3584 
Q 2378 3584 2631 3529 
Q 2884 3475 3122 3366 
z
" transform="scale(0.015625)"/>
       <path id="DejaVuSans-6f" d="M 1959 3097 
Q 1497 3097 1228 2736 
Q 959 2375 959 1747 
Q 959 1119 1226 758 
Q 1494 397 1959 397 
Q 2419 397 2687 759 
Q 2956 1122 2956 1747 
Q 2956 2369 2687 2733 
Q 2419 3097 1959 3097 
z
M 1959 3584 
Q 2709 3584 3137 3096 
Q 3566 2609 3566 1747 
Q 3566 888 3137 398 
Q 2709 -91 1959 -91 
Q 1206 -91 779 398 
Q 353 888 353 1747 
Q 353 2609 779 3096 
Q 1206 3584 1959 3584 
z
" transform="scale(0.015625)"/>
       <path id="DejaVuSans-6e" d="M 3513 2113 
L 3513 0 
L 2938 0 
L 2938 2094 
Q 2938 2591 2744 2837 
Q 2550 3084 2163 3084 
Q 1697 3084 1428 2787 
Q 1159 2491 1159 1978 
L 1159 0 
L 581 0 
L 581 3500 
L 1159 3500 
L 1159 2956 
Q 1366 3272 1645 3428 
Q 1925 3584 2291 3584 
Q 2894 3584 3203 3211 
Q 3513 2838 3513 2113 
z
" transform="scale(0.015625)"/>
      </defs>
      <use xlink:href="#DejaVuSans-45"/>
      <use xlink:href="#DejaVuSans-78" x="63.183594"/>
      <use xlink:href="#DejaVuSans-63" x="120.613281"/>
      <use xlink:href="#DejaVuSans-69" x="175.59375"/>
      <use xlink:href="#DejaVuSans-74" x="203.376953"/>
      <use xlink:href="#DejaVuSans-61" x="242.585938"/>
      <use xlink:href="#DejaVuSans-74" x="303.865234"/>
      <use xlink:href="#DejaVuSans-69" x="343.074219"/>
      <use xlink:href="#DejaVuSans-6f" x="370.857422"/>
      <use xlink:href="#DejaVuSans-6e" x="432.039062"/>
     </g>
    </g>
   </g>
   <g id="line2d_15">
    <path d="M 182.752066 430.92 
L 185.519008 430.331681 
L 188.28595 428.571232 
L 191.052893 425.652127 
L 193.819834 421.596673 
L 196.586777 416.435786 
L 199.353719 410.208682 
L 202.120661 402.962485 
L 204.887603 394.751758 
L 207.654544 385.637963 
L 210.421488 375.688862 
L 213.188429 364.977857 
L 215.955373 353.583253 
L 218.722314 341.587548 
L 224.256198 316.13892 
L 229.790081 289.345051 
L 243.624793 221.220624 
L 249.158679 195.32227 
L 254.692563 171.116961 
L 257.459501 159.81104 
L 260.226446 149.111034 
L 262.993384 139.065235 
L 265.760329 129.715392 
L 268.527267 121.096683 
L 271.294212 113.237587 
L 274.061158 106.159927 
L 276.828096 99.878892 
L 279.595041 94.403232 
L 282.361979 89.735457 
L 285.128924 85.872055 
L 287.895862 82.803836 
L 290.662807 80.516246 
L 293.429753 78.989775 
L 296.196691 78.200418 
L 298.963636 78.12 
L 301.730574 78.716748 
L 304.497519 79.955724 
L 307.264457 81.799326 
L 310.031402 84.207706 
L 312.798347 87.139313 
L 315.565293 90.551286 
L 318.332223 94.399936 
L 321.099169 98.641182 
L 323.866114 103.230917 
L 326.633059 108.125367 
L 332.166935 118.657053 
L 337.700826 129.904924 
L 346.001647 147.453952 
L 354.302468 165.015725 
L 359.836359 176.355667 
L 365.370249 187.188183 
L 370.904125 197.36697 
L 376.438016 206.77532 
L 379.204946 211.161404 
L 381.971892 215.322887 
L 384.738837 219.252042 
L 387.505782 222.942345 
L 390.272727 226.388493 
L 393.039658 229.5861 
L 395.806603 232.531848 
L 398.573548 235.223249 
L 401.340494 237.658668 
L 404.107439 239.837208 
L 406.87437 241.758697 
L 409.641315 243.4237 
L 412.40826 244.833396 
L 415.175205 245.989641 
L 417.942136 246.894857 
L 420.709081 247.552164 
L 423.476027 247.965283 
L 426.242972 248.138535 
L 429.009903 248.076875 
L 431.776848 247.785909 
L 434.543793 247.27187 
L 437.310738 246.541609 
L 440.077684 245.602633 
L 442.844629 244.463126 
L 445.611574 243.13184 
L 448.378519 241.618179 
L 451.145436 239.932204 
L 453.912381 238.084521 
L 456.679326 236.086325 
L 462.213217 231.685859 
L 467.747107 226.830735 
L 473.280998 221.627993 
L 481.581804 213.420406 
L 492.649585 202.34834 
L 498.183476 197.03225 
L 503.717337 192.027595 
L 509.251228 187.457718 
L 512.018173 185.374107 
L 514.785118 183.444959 
L 517.552063 181.685288 
L 520.319009 180.109977 
L 523.085954 178.733735 
L 525.85287 177.57103 
L 528.619815 176.636114 
L 531.386761 175.942952 
L 534.153706 175.505205 
L 536.920651 175.336077 
L 539.687596 175.448378 
L 542.454542 175.854351 
L 545.221487 176.565648 
L 547.988432 177.593181 
L 550.755348 178.947076 
L 553.522293 180.636586 
L 556.289239 182.669852 
L 559.056184 185.053899 
L 561.823129 187.794446 
L 564.590074 190.895791 
L 567.35702 194.360729 
L 570.123965 198.190262 
L 572.89091 202.383693 
L 575.657826 206.938316 
L 578.424772 211.849329 
L 581.191717 217.10988 
L 583.958662 222.710716 
L 586.725607 228.640359 
L 589.492553 234.884863 
L 595.026443 248.250607 
L 597.793388 255.33177 
L 597.793388 255.33177 
" clip-path="url(#pe7e135f148)" style="fill: none; stroke: #1f77b4; stroke-width: 1.5; stroke-linecap: square"/>
   </g>
   <g id="line2d_16">
    <path d="M 182.752066 424.20765 
L 185.519008 424.817863 
L 188.28595 419.631047 
L 191.052893 406.511453 
L 193.819834 391.866324 
L 196.586777 373.865021 
L 199.353719 358.609679 
L 202.120661 332.675597 
L 204.887603 302.47002 
L 207.654544 280.807434 
L 210.421488 245.720148 
L 213.188429 233.210767 
L 215.955373 202.089869 
L 218.722314 166.087262 
L 221.489256 157.239164 
L 224.256198 143.204249 
L 227.023139 113.608886 
L 229.790081 105.676108 
L 232.557022 101.099505 
L 235.323964 80.962454 
L 238.090909 80.35224 
L 240.857851 78.521599 
L 243.624793 78.521599 
L 246.391734 90.725873 
L 249.158679 86.14927 
L 251.925617 97.438223 
L 254.692563 105.676108 
L 257.459501 114.219099 
L 260.226446 128.559121 
L 262.993384 138.32254 
L 265.760329 144.11957 
L 268.527267 158.154484 
L 271.294212 169.748544 
L 274.061158 196.597946 
L 276.828096 203.92051 
L 279.595041 198.12348 
L 282.361979 207.581793 
L 285.128924 221.006494 
L 287.895862 221.921814 
L 290.662807 243.279293 
L 293.429753 243.279293 
L 296.196691 233.210767 
L 298.963636 254.263139 
L 301.730574 259.449955 
L 304.497519 256.398887 
L 307.264457 259.144849 
L 310.031402 263.111238 
L 312.798347 261.280597 
L 315.565293 248.771216 
L 318.332223 250.906964 
L 321.099169 249.991643 
L 323.866114 244.804827 
L 326.633059 236.566942 
L 329.39999 237.482263 
L 332.166935 228.634165 
L 334.93388 226.498417 
L 337.700826 213.683929 
L 340.467771 217.345211 
L 343.234702 206.056258 
L 346.001647 197.818374 
L 348.768592 197.513267 
L 351.535537 185.919207 
L 354.302468 182.868138 
L 357.069413 185.919207 
L 359.836359 174.325147 
L 362.603304 165.477048 
L 365.370249 161.815766 
L 368.13718 159.069805 
L 370.904125 149.9166 
L 373.67107 160.595339 
L 376.438016 156.323843 
L 379.204946 158.764698 
L 381.971892 153.577882 
L 384.738837 168.22301 
L 387.505782 177.681322 
L 390.272727 176.766002 
L 393.039658 185.003886 
L 395.806603 194.767305 
L 398.573548 210.022647 
L 401.340494 210.632861 
" clip-path="url(#pe7e135f148)" style="fill: none; stroke: #ff7f0e; stroke-width: 1.5; stroke-linecap: square"/>
   </g>
   <g id="line2d_17">
    <path d="M 426.894014 448.56 
L 426.894014 60.48 
" clip-path="url(#pe7e135f148)" style="fill: none; stroke-dasharray: 5.55,2.4; stroke-dashoffset: 0; stroke: #808080; stroke-width: 1.5"/>
   </g>
   <g id="line2d_18">
    <path d="M 162 247.855896 
L 618.545455 247.855896 
" clip-path="url(#pe7e135f148)" style="fill: none; stroke-dasharray: 5.55,2.4; stroke-dashoffset: 0; stroke: #808080; stroke-width: 1.5"/>
   </g>
   <g id="patch_3">
    <path d="M 162 448.56 
L 162 60.48 
" style="fill: none; stroke: #000000; stroke-width: 0.8; stroke-linejoin: miter; stroke-linecap: square"/>
   </g>
   <g id="patch_4">
    <path d="M 618.545455 448.56 
L 618.545455 60.48 
" style="fill: none; stroke: #000000; stroke-width: 0.8; stroke-linejoin: miter; stroke-linecap: square"/>
   </g>
   <g id="patch_5">
    <path d="M 162 448.56 
L 618.545455 448.56 
" style="fill: none; stroke: #000000; stroke-width: 0.8; stroke-linejoin: miter; stroke-linecap: square"/>
   </g>
   <g id="patch_6">
    <path d="M 162 60.48 
L 618.545455 60.48 
" style="fill: none; stroke: #000000; stroke-width: 0.8; stroke-linejoin: miter; stroke-linecap: square"/>
   </g>
   <g id="text_17">
    <!-- (a) Excitation v.s. pulse amplitude, Scaling = 1. -->
    <g transform="translate(176.878509 54.48) scale(0.18 -0.18)">
     <defs>
      <path id="DejaVuSans-28" d="M 1984 4856 
Q 1566 4138 1362 3434 
Q 1159 2731 1159 2009 
Q 1159 1288 1364 580 
Q 1569 -128 1984 -844 
L 1484 -844 
Q 1016 -109 783 600 
Q 550 1309 550 2009 
Q 550 2706 781 3412 
Q 1013 4119 1484 4856 
L 1984 4856 
z
" transform="scale(0.015625)"/>
      <path id="DejaVuSans-29" d="M 513 4856 
L 1013 4856 
Q 1481 4119 1714 3412 
Q 1947 2706 1947 2009 
Q 1947 1309 1714 600 
Q 1481 -109 1013 -844 
L 513 -844 
Q 928 -128 1133 580 
Q 1338 1288 1338 2009 
Q 1338 2731 1133 3434 
Q 928 4138 513 4856 
z
" transform="scale(0.015625)"/>
      <path id="DejaVuSans-76" d="M 191 3500 
L 800 3500 
L 1894 563 
L 2988 3500 
L 3597 3500 
L 2284 0 
L 1503 0 
L 191 3500 
z
" transform="scale(0.015625)"/>
      <path id="DejaVuSans-2c" d="M 750 794 
L 1409 794 
L 1409 256 
L 897 -744 
L 494 -744 
L 750 256 
L 750 794 
z
" transform="scale(0.015625)"/>
      <path id="DejaVuSans-53" d="M 3425 4513 
L 3425 3897 
Q 3066 4069 2747 4153 
Q 2428 4238 2131 4238 
Q 1616 4238 1336 4038 
Q 1056 3838 1056 3469 
Q 1056 3159 1242 3001 
Q 1428 2844 1947 2747 
L 2328 2669 
Q 3034 2534 3370 2195 
Q 3706 1856 3706 1288 
Q 3706 609 3251 259 
Q 2797 -91 1919 -91 
Q 1588 -91 1214 -16 
Q 841 59 441 206 
L 441 856 
Q 825 641 1194 531 
Q 1563 422 1919 422 
Q 2459 422 2753 634 
Q 3047 847 3047 1241 
Q 3047 1584 2836 1778 
Q 2625 1972 2144 2069 
L 1759 2144 
Q 1053 2284 737 2584 
Q 422 2884 422 3419 
Q 422 4038 858 4394 
Q 1294 4750 2059 4750 
Q 2388 4750 2728 4690 
Q 3069 4631 3425 4513 
z
" transform="scale(0.015625)"/>
      <path id="DejaVuSans-67" d="M 2906 1791 
Q 2906 2416 2648 2759 
Q 2391 3103 1925 3103 
Q 1463 3103 1205 2759 
Q 947 2416 947 1791 
Q 947 1169 1205 825 
Q 1463 481 1925 481 
Q 2391 481 2648 825 
Q 2906 1169 2906 1791 
z
M 3481 434 
Q 3481 -459 3084 -895 
Q 2688 -1331 1869 -1331 
Q 1566 -1331 1297 -1286 
Q 1028 -1241 775 -1147 
L 775 -588 
Q 1028 -725 1275 -790 
Q 1522 -856 1778 -856 
Q 2344 -856 2625 -561 
Q 2906 -266 2906 331 
L 2906 616 
Q 2728 306 2450 153 
Q 2172 0 1784 0 
Q 1141 0 747 490 
Q 353 981 353 1791 
Q 353 2603 747 3093 
Q 1141 3584 1784 3584 
Q 2172 3584 2450 3431 
Q 2728 3278 2906 2969 
L 2906 3500 
L 3481 3500 
L 3481 434 
z
" transform="scale(0.015625)"/>
      <path id="DejaVuSans-3d" d="M 678 2906 
L 4684 2906 
L 4684 2381 
L 678 2381 
L 678 2906 
z
M 678 1631 
L 4684 1631 
L 4684 1100 
L 678 1100 
L 678 1631 
z
" transform="scale(0.015625)"/>
     </defs>
     <use xlink:href="#DejaVuSans-28"/>
     <use xlink:href="#DejaVuSans-61" x="39.013672"/>
     <use xlink:href="#DejaVuSans-29" x="100.292969"/>
     <use xlink:href="#DejaVuSans-20" x="139.306641"/>
     <use xlink:href="#DejaVuSans-45" x="171.09375"/>
     <use xlink:href="#DejaVuSans-78" x="234.277344"/>
     <use xlink:href="#DejaVuSans-63" x="291.707031"/>
     <use xlink:href="#DejaVuSans-69" x="346.6875"/>
     <use xlink:href="#DejaVuSans-74" x="374.470703"/>
     <use xlink:href="#DejaVuSans-61" x="413.679688"/>
     <use xlink:href="#DejaVuSans-74" x="474.958984"/>
     <use xlink:href="#DejaVuSans-69" x="514.167969"/>
     <use xlink:href="#DejaVuSans-6f" x="541.951172"/>
     <use xlink:href="#DejaVuSans-6e" x="603.132812"/>
     <use xlink:href="#DejaVuSans-20" x="666.511719"/>
     <use xlink:href="#DejaVuSans-76" x="698.298828"/>
     <use xlink:href="#DejaVuSans-2e" x="749.728516"/>
     <use xlink:href="#DejaVuSans-73" x="781.515625"/>
     <use xlink:href="#DejaVuSans-2e" x="833.615234"/>
     <use xlink:href="#DejaVuSans-20" x="865.402344"/>
     <use xlink:href="#DejaVuSans-70" x="897.189453"/>
     <use xlink:href="#DejaVuSans-75" x="960.666016"/>
     <use xlink:href="#DejaVuSans-6c" x="1024.044922"/>
     <use xlink:href="#DejaVuSans-73" x="1051.828125"/>
     <use xlink:href="#DejaVuSans-65" x="1103.927734"/>
     <use xlink:href="#DejaVuSans-20" x="1165.451172"/>
     <use xlink:href="#DejaVuSans-61" x="1197.238281"/>
     <use xlink:href="#DejaVuSans-6d" x="1258.517578"/>
     <use xlink:href="#DejaVuSans-70" x="1355.929688"/>
     <use xlink:href="#DejaVuSans-6c" x="1419.40625"/>
     <use xlink:href="#DejaVuSans-69" x="1447.189453"/>
     <use xlink:href="#DejaVuSans-74" x="1474.972656"/>
     <use xlink:href="#DejaVuSans-75" x="1514.181641"/>
     <use xlink:href="#DejaVuSans-64" x="1577.560547"/>
     <use xlink:href="#DejaVuSans-65" x="1641.037109"/>
     <use xlink:href="#DejaVuSans-2c" x="1702.560547"/>
     <use xlink:href="#DejaVuSans-20" x="1734.347656"/>
     <use xlink:href="#DejaVuSans-53" x="1766.134766"/>
     <use xlink:href="#DejaVuSans-63" x="1829.611328"/>
     <use xlink:href="#DejaVuSans-61" x="1884.591797"/>
     <use xlink:href="#DejaVuSans-6c" x="1945.871094"/>
     <use xlink:href="#DejaVuSans-69" x="1973.654297"/>
     <use xlink:href="#DejaVuSans-6e" x="2001.4375"/>
     <use xlink:href="#DejaVuSans-67" x="2064.816406"/>
     <use xlink:href="#DejaVuSans-20" x="2128.292969"/>
     <use xlink:href="#DejaVuSans-3d" x="2160.080078"/>
     <use xlink:href="#DejaVuSans-20" x="2243.869141"/>
     <use xlink:href="#DejaVuSans-31" x="2275.65625"/>
     <use xlink:href="#DejaVuSans-2e" x="2339.279297"/>
    </g>
   </g>
  </g>
  <g id="axes_2">
   <g id="patch_7">
    <path d="M 709.854545 448.56 
L 1166.4 448.56 
L 1166.4 60.48 
L 709.854545 60.48 
z
" style="fill: #ffffff"/>
   </g>
   <g id="matplotlib.axis_3">
    <g id="xtick_9">
     <g id="line2d_19">
      <g>
       <use xlink:href="#mc64ced5357" x="730.606612" y="448.56" style="stroke: #000000; stroke-width: 0.8"/>
      </g>
     </g>
     <g id="text_18">
      <!-- 0.0 -->
      <g transform="translate(718.679268 466.957656) scale(0.15 -0.15)">
       <use xlink:href="#DejaVuSans-30"/>
       <use xlink:href="#DejaVuSans-2e" x="63.623047"/>
       <use xlink:href="#DejaVuSans-30" x="95.410156"/>
      </g>
     </g>
    </g>
    <g id="xtick_10">
     <g id="line2d_20">
      <g>
       <use xlink:href="#mc64ced5357" x="823.318744" y="448.56" style="stroke: #000000; stroke-width: 0.8"/>
      </g>
     </g>
     <g id="text_19">
      <!-- 0.2 -->
      <g transform="translate(811.391401 466.957656) scale(0.15 -0.15)">
       <use xlink:href="#DejaVuSans-30"/>
       <use xlink:href="#DejaVuSans-2e" x="63.623047"/>
       <use xlink:href="#DejaVuSans-32" x="95.410156"/>
      </g>
     </g>
    </g>
    <g id="xtick_11">
     <g id="line2d_21">
      <g>
       <use xlink:href="#mc64ced5357" x="916.030877" y="448.56" style="stroke: #000000; stroke-width: 0.8"/>
      </g>
     </g>
     <g id="text_20">
      <!-- 0.4 -->
      <g transform="translate(904.103534 466.957656) scale(0.15 -0.15)">
       <use xlink:href="#DejaVuSans-30"/>
       <use xlink:href="#DejaVuSans-2e" x="63.623047"/>
       <use xlink:href="#DejaVuSans-34" x="95.410156"/>
      </g>
     </g>
    </g>
    <g id="xtick_12">
     <g id="line2d_22">
      <g>
       <use xlink:href="#mc64ced5357" x="1008.74301" y="448.56" style="stroke: #000000; stroke-width: 0.8"/>
      </g>
     </g>
     <g id="text_21">
      <!-- 0.6 -->
      <g transform="translate(996.815666 466.957656) scale(0.15 -0.15)">
       <use xlink:href="#DejaVuSans-30"/>
       <use xlink:href="#DejaVuSans-2e" x="63.623047"/>
       <use xlink:href="#DejaVuSans-36" x="95.410156"/>
      </g>
     </g>
    </g>
    <g id="xtick_13">
     <g id="line2d_23">
      <g>
       <use xlink:href="#mc64ced5357" x="1101.455143" y="448.56" style="stroke: #000000; stroke-width: 0.8"/>
      </g>
     </g>
     <g id="text_22">
      <!-- 0.8 -->
      <g transform="translate(1089.527799 466.957656) scale(0.15 -0.15)">
       <use xlink:href="#DejaVuSans-30"/>
       <use xlink:href="#DejaVuSans-2e" x="63.623047"/>
       <use xlink:href="#DejaVuSans-38" x="95.410156"/>
      </g>
     </g>
    </g>
    <g id="text_23">
     <!-- Pulse amplitude -->
     <g transform="translate(878.09446 485.474844) scale(0.15 -0.15)">
      <use xlink:href="#DejaVuSans-50"/>
      <use xlink:href="#DejaVuSans-75" x="58.552734"/>
      <use xlink:href="#DejaVuSans-6c" x="121.931641"/>
      <use xlink:href="#DejaVuSans-73" x="149.714844"/>
      <use xlink:href="#DejaVuSans-65" x="201.814453"/>
      <use xlink:href="#DejaVuSans-20" x="263.337891"/>
      <use xlink:href="#DejaVuSans-61" x="295.125"/>
      <use xlink:href="#DejaVuSans-6d" x="356.404297"/>
      <use xlink:href="#DejaVuSans-70" x="453.816406"/>
      <use xlink:href="#DejaVuSans-6c" x="517.292969"/>
      <use xlink:href="#DejaVuSans-69" x="545.076172"/>
      <use xlink:href="#DejaVuSans-74" x="572.859375"/>
      <use xlink:href="#DejaVuSans-75" x="612.068359"/>
      <use xlink:href="#DejaVuSans-64" x="675.447266"/>
      <use xlink:href="#DejaVuSans-65" x="738.923828"/>
     </g>
    </g>
   </g>
   <g id="matplotlib.axis_4">
    <g id="ytick_7">
     <g id="line2d_24">
      <g>
       <use xlink:href="#m95c9d96d58" x="709.854545" y="430.92" style="stroke: #000000; stroke-width: 0.8"/>
      </g>
     </g>
     <g id="text_24">
      <!-- 0.0 -->
      <g transform="translate(678.999858 436.618828) scale(0.15 -0.15)">
       <use xlink:href="#DejaVuSans-30"/>
       <use xlink:href="#DejaVuSans-2e" x="63.623047"/>
       <use xlink:href="#DejaVuSans-30" x="95.410156"/>
      </g>
     </g>
    </g>
    <g id="ytick_8">
     <g id="line2d_25">
      <g>
       <use xlink:href="#m95c9d96d58" x="709.854545" y="357.694358" style="stroke: #000000; stroke-width: 0.8"/>
      </g>
     </g>
     <g id="text_25">
      <!-- 0.2 -->
      <g transform="translate(678.999858 363.393186) scale(0.15 -0.15)">
       <use xlink:href="#DejaVuSans-30"/>
       <use xlink:href="#DejaVuSans-2e" x="63.623047"/>
       <use xlink:href="#DejaVuSans-32" x="95.410156"/>
      </g>
     </g>
    </g>
    <g id="ytick_9">
     <g id="line2d_26">
      <g>
       <use xlink:href="#m95c9d96d58" x="709.854545" y="284.468716" style="stroke: #000000; stroke-width: 0.8"/>
      </g>
     </g>
     <g id="text_26">
      <!-- 0.4 -->
      <g transform="translate(678.999858 290.167545) scale(0.15 -0.15)">
       <use xlink:href="#DejaVuSans-30"/>
       <use xlink:href="#DejaVuSans-2e" x="63.623047"/>
       <use xlink:href="#DejaVuSans-34" x="95.410156"/>
      </g>
     </g>
    </g>
    <g id="ytick_10">
     <g id="line2d_27">
      <g>
       <use xlink:href="#m95c9d96d58" x="709.854545" y="211.243075" style="stroke: #000000; stroke-width: 0.8"/>
      </g>
     </g>
     <g id="text_27">
      <!-- 0.6 -->
      <g transform="translate(678.999858 216.941903) scale(0.15 -0.15)">
       <use xlink:href="#DejaVuSans-30"/>
       <use xlink:href="#DejaVuSans-2e" x="63.623047"/>
       <use xlink:href="#DejaVuSans-36" x="95.410156"/>
      </g>
     </g>
    </g>
    <g id="ytick_11">
     <g id="line2d_28">
      <g>
       <use xlink:href="#m95c9d96d58" x="709.854545" y="138.017433" style="stroke: #000000; stroke-width: 0.8"/>
      </g>
     </g>
     <g id="text_28">
      <!-- 0.8 -->
      <g transform="translate(678.999858 143.716261) scale(0.15 -0.15)">
       <use xlink:href="#DejaVuSans-30"/>
       <use xlink:href="#DejaVuSans-2e" x="63.623047"/>
       <use xlink:href="#DejaVuSans-38" x="95.410156"/>
      </g>
     </g>
    </g>
    <g id="ytick_12">
     <g id="line2d_29">
      <g>
       <use xlink:href="#m95c9d96d58" x="709.854545" y="64.791791" style="stroke: #000000; stroke-width: 0.8"/>
      </g>
     </g>
     <g id="text_29">
      <!-- 1.0 -->
      <g transform="translate(678.999858 70.490619) scale(0.15 -0.15)">
       <use xlink:href="#DejaVuSans-31"/>
       <use xlink:href="#DejaVuSans-2e" x="63.623047"/>
       <use xlink:href="#DejaVuSans-30" x="95.410156"/>
      </g>
     </g>
    </g>
    <g id="text_30">
     <!-- Excitation -->
     <g transform="translate(671.880327 291.676641) rotate(-90) scale(0.15 -0.15)">
      <use xlink:href="#DejaVuSans-45"/>
      <use xlink:href="#DejaVuSans-78" x="63.183594"/>
      <use xlink:href="#DejaVuSans-63" x="120.613281"/>
      <use xlink:href="#DejaVuSans-69" x="175.59375"/>
      <use xlink:href="#DejaVuSans-74" x="203.376953"/>
      <use xlink:href="#DejaVuSans-61" x="242.585938"/>
      <use xlink:href="#DejaVuSans-74" x="303.865234"/>
      <use xlink:href="#DejaVuSans-69" x="343.074219"/>
      <use xlink:href="#DejaVuSans-6f" x="370.857422"/>
      <use xlink:href="#DejaVuSans-6e" x="432.039062"/>
     </g>
    </g>
   </g>
   <g id="line2d_30">
    <path d="M 730.606612 430.92 
L 733.338529 430.331681 
L 736.070446 428.571232 
L 738.802364 425.652127 
L 741.534281 421.596673 
L 744.266199 416.435786 
L 746.998117 410.208682 
L 749.730034 402.962485 
L 752.46195 394.751758 
L 755.193868 385.637963 
L 757.925786 375.688862 
L 760.657705 364.977857 
L 763.389623 353.583253 
L 766.121541 341.587548 
L 771.585374 316.13892 
L 777.049207 289.345051 
L 790.708797 221.220624 
L 796.172634 195.32227 
L 801.63647 171.116961 
L 804.368381 159.81104 
L 807.1003 149.111034 
L 809.832211 139.065235 
L 812.564136 129.715392 
L 815.296047 121.096683 
L 818.027965 113.237587 
L 820.75989 106.159927 
L 823.491802 99.878892 
L 826.22372 94.403232 
L 828.955638 89.735457 
L 831.687556 85.872055 
L 834.419467 82.803836 
L 837.151393 80.516246 
L 839.883311 78.989775 
L 842.615222 78.200418 
L 845.347147 78.12 
L 848.079058 78.716748 
L 850.810983 79.955724 
L 853.542895 81.799326 
L 856.27482 84.207706 
L 859.006731 87.139313 
L 861.738656 90.551286 
L 864.470567 94.399936 
L 867.202479 98.641182 
L 869.934404 103.230917 
L 872.666329 108.125367 
L 878.130151 118.657053 
L 883.593988 129.904924 
L 891.789735 147.453952 
L 899.985483 165.015725 
L 905.449319 176.355667 
L 910.913169 187.188183 
L 916.376992 197.36697 
L 921.840828 206.77532 
L 924.572739 211.161404 
L 927.304665 215.322887 
L 930.036576 219.252042 
L 932.768501 222.942345 
L 935.500426 226.388493 
L 938.232323 229.5861 
L 940.964248 232.531848 
L 943.696174 235.223249 
L 946.428085 237.658668 
L 949.16001 239.837208 
L 951.891921 241.758697 
L 954.623832 243.4237 
L 957.355757 244.833396 
L 960.087683 245.989641 
L 962.81958 246.894857 
L 965.551505 247.552164 
L 968.28343 247.965283 
L 971.015355 248.138535 
L 973.747253 248.076875 
L 976.479178 247.785909 
L 979.211103 247.27187 
L 981.943028 246.541609 
L 984.674925 245.602633 
L 987.40685 244.463126 
L 990.138776 243.13184 
L 992.870701 241.618179 
L 995.602598 239.932204 
L 998.334523 238.084521 
L 1001.066421 236.086325 
L 1006.530271 231.685859 
L 1011.994121 226.830735 
L 1017.457943 221.627993 
L 1025.653691 213.420406 
L 1036.581364 202.34834 
L 1042.045214 197.03225 
L 1047.509009 192.027595 
L 1052.972859 187.457718 
L 1055.704784 185.374107 
L 1058.436709 183.444959 
L 1061.168634 181.685288 
L 1063.900559 180.109977 
L 1066.632457 178.733735 
L 1069.364354 177.57103 
L 1072.096279 176.636114 
L 1074.828204 175.942952 
L 1077.560129 175.505205 
L 1080.292027 175.336077 
L 1083.023952 175.448378 
L 1085.755877 175.854351 
L 1088.487802 176.565648 
L 1091.219727 177.593181 
L 1093.951625 178.947076 
L 1096.683522 180.636586 
L 1099.415447 182.669852 
L 1102.147372 185.053899 
L 1104.879297 187.794446 
L 1107.611222 190.895791 
L 1110.343147 194.360729 
L 1113.075045 198.190262 
L 1115.80697 202.383693 
L 1118.538867 206.938316 
L 1121.270792 211.849329 
L 1124.002717 217.10988 
L 1126.734643 222.710716 
L 1129.46654 228.640359 
L 1132.198465 234.884863 
L 1137.662315 248.250607 
L 1140.39424 255.33177 
L 1140.39424 255.33177 
" clip-path="url(#p41e8962b39)" style="fill: none; stroke: #1f77b4; stroke-width: 1.5; stroke-linecap: square"/>
   </g>
   <g id="line2d_31">
    <path d="M 730.606612 424.20765 
L 735.860299 424.817863 
L 741.113987 419.631047 
L 746.367675 406.511453 
L 751.621362 391.866324 
L 756.87505 373.865021 
L 762.128738 358.609679 
L 767.382425 332.675597 
L 772.636112 302.47002 
L 777.889798 280.807434 
L 783.143489 245.720148 
L 788.397175 233.210767 
L 793.650865 202.089869 
L 798.904552 166.087262 
L 804.158239 157.239164 
L 809.411925 143.204249 
L 814.665612 113.608886 
L 819.919299 105.676108 
L 825.172985 101.099505 
L 830.426672 80.962454 
L 835.680366 80.35224 
L 840.934052 78.521599 
L 846.187739 78.521599 
L 851.441426 90.725873 
L 856.695119 86.14927 
L 861.948799 97.438223 
L 867.202492 105.676108 
L 872.456172 114.219099 
L 877.709866 128.559121 
L 882.963546 138.32254 
L 888.217239 144.11957 
L 893.470919 158.154484 
L 898.724612 169.748544 
L 903.978306 196.597946 
L 909.231986 203.92051 
L 914.485679 198.12348 
L 919.739359 207.581793 
L 924.993053 221.006494 
L 930.246732 221.921814 
L 935.500426 243.279293 
L 940.75412 243.279293 
L 946.007799 233.210767 
L 951.261493 254.263139 
L 956.515173 259.449955 
L 961.768866 256.398887 
L 967.022546 259.144849 
L 972.276239 263.111238 
L 977.529933 261.280597 
L 982.783627 248.771216 
L 988.037293 250.906964 
L 993.290986 249.991643 
L 998.54468 244.804827 
L 1003.798373 236.566942 
L 1009.052039 237.482263 
L 1014.305733 228.634165 
L 1019.559426 226.498417 
L 1024.81312 213.683929 
L 1030.066813 217.345211 
L 1035.320479 206.056258 
L 1040.574173 197.818374 
L 1045.827867 197.513267 
L 1051.08156 185.919207 
L 1056.335226 182.868138 
L 1061.58892 185.919207 
L 1066.842613 174.325147 
L 1072.096307 165.477048 
L 1077.35 161.815766 
L 1082.603666 159.069805 
L 1087.85736 149.9166 
L 1093.111053 160.595339 
L 1098.364747 156.323843 
L 1103.618413 158.764698 
L 1108.872107 153.577882 
L 1114.1258 168.22301 
L 1119.379494 177.681322 
L 1124.633187 176.766002 
L 1129.886853 185.003886 
L 1135.140547 194.767305 
L 1140.39424 210.022647 
L 1145.647934 210.632861 
" clip-path="url(#p41e8962b39)" style="fill: none; stroke: #ff7f0e; stroke-width: 1.5; stroke-linecap: square"/>
   </g>
   <g id="line2d_32">
    <path d="M 971.658157 448.56 
L 971.658157 60.48 
" clip-path="url(#p41e8962b39)" style="fill: none; stroke-dasharray: 5.55,2.4; stroke-dashoffset: 0; stroke: #808080; stroke-width: 1.5"/>
   </g>
   <g id="line2d_33">
    <path d="M 709.854545 247.855896 
L 1166.4 247.855896 
" clip-path="url(#p41e8962b39)" style="fill: none; stroke-dasharray: 5.55,2.4; stroke-dashoffset: 0; stroke: #808080; stroke-width: 1.5"/>
   </g>
   <g id="patch_8">
    <path d="M 709.854545 448.56 
L 709.854545 60.48 
" style="fill: none; stroke: #000000; stroke-width: 0.8; stroke-linejoin: miter; stroke-linecap: square"/>
   </g>
   <g id="patch_9">
    <path d="M 1166.4 448.56 
L 1166.4 60.48 
" style="fill: none; stroke: #000000; stroke-width: 0.8; stroke-linejoin: miter; stroke-linecap: square"/>
   </g>
   <g id="patch_10">
    <path d="M 709.854545 448.56 
L 1166.4 448.56 
" style="fill: none; stroke: #000000; stroke-width: 0.8; stroke-linejoin: miter; stroke-linecap: square"/>
   </g>
   <g id="patch_11">
    <path d="M 709.854545 60.48 
L 1166.4 60.48 
" style="fill: none; stroke: #000000; stroke-width: 0.8; stroke-linejoin: miter; stroke-linecap: square"/>
   </g>
   <g id="text_31">
    <!-- (b) Excitation v.s. pulse amplitude, Scaling = 0.52 -->
    <g transform="translate(713.082273 54.48) scale(0.18 -0.18)">
     <defs>
      <path id="DejaVuSans-62" d="M 3116 1747 
Q 3116 2381 2855 2742 
Q 2594 3103 2138 3103 
Q 1681 3103 1420 2742 
Q 1159 2381 1159 1747 
Q 1159 1113 1420 752 
Q 1681 391 2138 391 
Q 2594 391 2855 752 
Q 3116 1113 3116 1747 
z
M 1159 2969 
Q 1341 3281 1617 3432 
Q 1894 3584 2278 3584 
Q 2916 3584 3314 3078 
Q 3713 2572 3713 1747 
Q 3713 922 3314 415 
Q 2916 -91 2278 -91 
Q 1894 -91 1617 61 
Q 1341 213 1159 525 
L 1159 0 
L 581 0 
L 581 4863 
L 1159 4863 
L 1159 2969 
z
" transform="scale(0.015625)"/>
     </defs>
     <use xlink:href="#DejaVuSans-28"/>
     <use xlink:href="#DejaVuSans-62" x="39.013672"/>
     <use xlink:href="#DejaVuSans-29" x="102.490234"/>
     <use xlink:href="#DejaVuSans-20" x="141.503906"/>
     <use xlink:href="#DejaVuSans-45" x="173.291016"/>
     <use xlink:href="#DejaVuSans-78" x="236.474609"/>
     <use xlink:href="#DejaVuSans-63" x="293.904297"/>
     <use xlink:href="#DejaVuSans-69" x="348.884766"/>
     <use xlink:href="#DejaVuSans-74" x="376.667969"/>
     <use xlink:href="#DejaVuSans-61" x="415.876953"/>
     <use xlink:href="#DejaVuSans-74" x="477.15625"/>
     <use xlink:href="#DejaVuSans-69" x="516.365234"/>
     <use xlink:href="#DejaVuSans-6f" x="544.148438"/>
     <use xlink:href="#DejaVuSans-6e" x="605.330078"/>
     <use xlink:href="#DejaVuSans-20" x="668.708984"/>
     <use xlink:href="#DejaVuSans-76" x="700.496094"/>
     <use xlink:href="#DejaVuSans-2e" x="751.925781"/>
     <use xlink:href="#DejaVuSans-73" x="783.712891"/>
     <use xlink:href="#DejaVuSans-2e" x="835.8125"/>
     <use xlink:href="#DejaVuSans-20" x="867.599609"/>
     <use xlink:href="#DejaVuSans-70" x="899.386719"/>
     <use xlink:href="#DejaVuSans-75" x="962.863281"/>
     <use xlink:href="#DejaVuSans-6c" x="1026.242188"/>
     <use xlink:href="#DejaVuSans-73" x="1054.025391"/>
     <use xlink:href="#DejaVuSans-65" x="1106.125"/>
     <use xlink:href="#DejaVuSans-20" x="1167.648438"/>
     <use xlink:href="#DejaVuSans-61" x="1199.435547"/>
     <use xlink:href="#DejaVuSans-6d" x="1260.714844"/>
     <use xlink:href="#DejaVuSans-70" x="1358.126953"/>
     <use xlink:href="#DejaVuSans-6c" x="1421.603516"/>
     <use xlink:href="#DejaVuSans-69" x="1449.386719"/>
     <use xlink:href="#DejaVuSans-74" x="1477.169922"/>
     <use xlink:href="#DejaVuSans-75" x="1516.378906"/>
     <use xlink:href="#DejaVuSans-64" x="1579.757812"/>
     <use xlink:href="#DejaVuSans-65" x="1643.234375"/>
     <use xlink:href="#DejaVuSans-2c" x="1704.757812"/>
     <use xlink:href="#DejaVuSans-20" x="1736.544922"/>
     <use xlink:href="#DejaVuSans-53" x="1768.332031"/>
     <use xlink:href="#DejaVuSans-63" x="1831.808594"/>
     <use xlink:href="#DejaVuSans-61" x="1886.789062"/>
     <use xlink:href="#DejaVuSans-6c" x="1948.068359"/>
     <use xlink:href="#DejaVuSans-69" x="1975.851562"/>
     <use xlink:href="#DejaVuSans-6e" x="2003.634766"/>
     <use xlink:href="#DejaVuSans-67" x="2067.013672"/>
     <use xlink:href="#DejaVuSans-20" x="2130.490234"/>
     <use xlink:href="#DejaVuSans-3d" x="2162.277344"/>
     <use xlink:href="#DejaVuSans-20" x="2246.066406"/>
     <use xlink:href="#DejaVuSans-30" x="2277.853516"/>
     <use xlink:href="#DejaVuSans-2e" x="2341.476562"/>
     <use xlink:href="#DejaVuSans-35" x="2373.263672"/>
     <use xlink:href="#DejaVuSans-32" x="2436.886719"/>
    </g>
   </g>
  </g>
 </g>
 <defs>
  <clipPath id="pe7e135f148">
   <rect x="162" y="60.48" width="456.545455" height="388.08"/>
  </clipPath>
  <clipPath id="p41e8962b39">
   <rect x="709.854545" y="60.48" width="456.545455" height="388.08"/>
  </clipPath>
 </defs>
</svg>
